<?xml version="1.0" encoding="UTF-8"?>
<svg version="1.1" xmlns="http://www.w3.org/2000/svg" width="160" height="160">
<path d="M0 0 C9.8476771 4.48401592 18.14738261 10.4610751 26.28515625 17.52734375 C27.12240234 18.24712402 27.12240234 18.24712402 27.9765625 18.98144531 C43.30276665 32.27186017 62.22015343 51.52045217 65.75390625 72.28125 C65.99969591 76.40437149 65.7089736 79.6260298 63.34765625 83.08984375 C59.34894608 86.27249062 56.32294316 86.79339383 51.28515625 86.52734375 C48.8062875 86.06057322 46.66953973 85.38978033 44.28515625 84.52734375 C42.93568836 86.14014406 42.93568836 86.14014406 42.28515625 88.52734375 C43.23545381 90.8955456 44.21649248 92.89507058 45.47265625 95.08984375 C50.43752969 104.39186193 54.7806354 115.00504705 51.6640625 125.6484375 C48.94896773 131.83885358 43.93963859 137.73798796 37.8359375 140.7265625 C28.01307433 143.81030974 18.40257756 140.25950286 9.28515625 136.52734375 C6.94271529 135.29115302 4.68913364 133.97121743 2.42578125 132.59765625 C-1.3935773 130.68797698 -5.51693431 130.11452524 -9.71484375 129.52734375 C-9.90820312 130.20667969 -10.1015625 130.88601562 -10.30078125 131.5859375 C-12.2690588 135.6801723 -15.13261292 138.41959357 -18.33984375 141.58984375 C-18.93152344 142.20150391 -19.52320312 142.81316406 -20.1328125 143.44335938 C-26.83524082 150.13854965 -33.27582383 153.13405125 -42.71484375 153.52734375 C-43.9059375 153.62208984 -43.9059375 153.62208984 -45.12109375 153.71875 C-55.46742969 154.22624433 -63.54958472 150.44643313 -71.3046875 143.78515625 C-80.47403157 135.19539795 -90.16069548 124.36601418 -92.015625 111.4296875 C-92.07118888 102.11347649 -90.88856219 93.34379546 -84.52734375 86.21484375 C-82.94258337 84.63266441 -81.33851351 83.06956729 -79.71484375 81.52734375 C-78.98007813 80.76035156 -78.2453125 79.99335937 -77.48828125 79.203125 C-74.39596948 75.97762377 -71.84390768 73.35033003 -67.71484375 71.52734375 C-67.5958258 63.5021337 -69.81695922 57.44741093 -73.11962891 50.31274414 C-76.88595177 42.13279226 -79.49333135 33.86280656 -76.52734375 24.96484375 C-72.95613226 18.19185643 -68.6667329 13.76379121 -61.71484375 10.52734375 C-50.08570834 7.71384325 -39.40635548 12.8060094 -29.05859375 17.8125 C-27.8675 18.38291016 -27.8675 18.38291016 -26.65234375 18.96484375 C-25.96011719 19.31417969 -25.26789063 19.66351562 -24.5546875 20.0234375 C-23.94753906 20.18972656 -23.34039062 20.35601563 -22.71484375 20.52734375 C-21.72484375 19.86734375 -20.73484375 19.20734375 -19.71484375 18.52734375 C-20.20984375 17.25890625 -20.20984375 17.25890625 -20.71484375 15.96484375 C-22.10310557 11.19269373 -22.52700174 7.40813069 -20.52734375 2.77734375 C-14.67389372 -4.48900801 -7.98443908 -3.16522979 0 0 Z M-15.71484375 4.52734375 C-16.11034085 10.26205172 -15.9580154 14.56719888 -12.71484375 19.52734375 C-10.3735369 20.76527611 -8.01348539 21.59717902 -5.51171875 22.46484375 C15.78527691 30.55532255 32.64890729 51.65844016 42.28515625 71.52734375 C42.81833366 72.8199964 43.34471362 74.11547995 43.86328125 75.4140625 C44.99447547 78.73352109 44.99447547 78.73352109 48.03515625 79.96484375 C51.5862408 80.57945454 54.69175999 80.87286262 58.28515625 80.52734375 C60.46179517 77.26238537 60.61476304 75.8751553 60.00390625 72.078125 C52.21187893 44.4248976 25.33880846 20.35299057 1.28515625 6.52734375 C-2.70510439 4.47652014 -11.86878867 0.68128867 -15.71484375 4.52734375 Z M-8.71484375 26.52734375 C-4.47364308 34.61367966 0.79353564 40.19580212 7.50952148 46.24243164 C12.64552984 50.87330057 17.32149407 55.7441655 21.91796875 60.90625 C26.93945423 66.56316574 26.93945423 66.56316574 33.09765625 70.83984375 C34.14953125 71.39671875 35.20140625 71.95359375 36.28515625 72.52734375 C31.00608961 54.20105022 12.4866977 37.64514093 -3.51171875 28.21484375 C-6.40634554 26.37197637 -6.40634554 26.37197637 -8.71484375 26.52734375 Z " fill="#6D7278" transform="translate(91.71484375,6.47265625)"/>
<path d="M0 0 C9.8476771 4.48401592 18.14738261 10.4610751 26.28515625 17.52734375 C27.12240234 18.24712402 27.12240234 18.24712402 27.9765625 18.98144531 C43.30276665 32.27186017 62.22015343 51.52045217 65.75390625 72.28125 C65.99969591 76.40437149 65.7089736 79.6260298 63.34765625 83.08984375 C59.34894608 86.27249062 56.32294316 86.79339383 51.28515625 86.52734375 C48.8062875 86.06057322 46.66953973 85.38978033 44.28515625 84.52734375 C42.93568836 86.14014406 42.93568836 86.14014406 42.28515625 88.52734375 C43.23545381 90.8955456 44.21649248 92.89507058 45.47265625 95.08984375 C50.43752969 104.39186193 54.7806354 115.00504705 51.6640625 125.6484375 C48.94896773 131.83885358 43.93963859 137.73798796 37.8359375 140.7265625 C28.01307433 143.81030974 18.40257756 140.25950286 9.28515625 136.52734375 C6.94271529 135.29115302 4.68913364 133.97121743 2.42578125 132.59765625 C-1.3935773 130.68797698 -5.51693431 130.11452524 -9.71484375 129.52734375 C-10.04484375 130.18734375 -10.37484375 130.84734375 -10.71484375 131.52734375 C-10.71484375 129.87734375 -10.71484375 128.22734375 -10.71484375 126.52734375 C-6.75484375 127.51734375 -2.79484375 128.50734375 1.28515625 129.52734375 C1.94515625 128.20734375 2.60515625 126.88734375 3.28515625 125.52734375 C5.5 124.1328125 5.5 124.1328125 8.28515625 123.52734375 C11.4765625 124.390625 11.4765625 124.390625 14.84765625 125.83984375 C19.95361301 128.03087639 19.95361301 128.03087639 25.28515625 129.52734375 C25.61515625 128.20734375 25.94515625 126.88734375 26.28515625 125.52734375 C27.1771875 125.51316406 28.06921875 125.49898438 28.98828125 125.484375 C30.74398437 125.41283203 30.74398437 125.41283203 32.53515625 125.33984375 C34.27539062 125.28763672 34.27539062 125.28763672 36.05078125 125.234375 C39.40263752 124.78342613 39.40263752 124.78342613 41.67578125 122.35546875 C45.02112777 116.47675303 44.02870703 109.52934317 42.44921875 103.15234375 C41.49364303 100.22095356 40.47482825 97.37126769 39.28515625 94.52734375 C39.01058594 93.77839844 38.73601562 93.02945313 38.453125 92.2578125 C37.39667721 90.31798084 37.39667721 90.31798084 35.078125 89.76953125 C33.78841797 89.58777344 33.78841797 89.58777344 32.47265625 89.40234375 C28.82545172 88.81119048 25.65952587 88.10204957 22.28515625 86.52734375 C21.29515625 88.50734375 21.29515625 88.50734375 20.28515625 90.52734375 C19.29515625 90.52734375 18.30515625 90.52734375 17.28515625 90.52734375 C17.61515625 88.21734375 17.94515625 85.90734375 18.28515625 83.52734375 C17.67929688 83.12644531 17.0734375 82.72554688 16.44921875 82.3125 C9.89133533 77.86322832 4.04815077 72.95766965 -1.71484375 67.52734375 C-2.31941406 66.98722656 -2.92398438 66.44710937 -3.546875 65.890625 C-12.47303677 57.59159404 -22.34729058 44.65501408 -24.71484375 32.52734375 C-24.75372724 30.19433442 -24.75970725 27.86024574 -24.71484375 25.52734375 C-25.39289063 25.42550781 -26.0709375 25.32367187 -26.76953125 25.21875 C-29.66573349 24.53887229 -32.21660706 23.50817802 -34.93017578 22.30395508 C-41.7539701 19.30556834 -48.15737 16.85081578 -55.71484375 18.52734375 C-59.13151042 20.11067708 -59.13151042 20.11067708 -60.71484375 23.52734375 C-63.60151566 37.52406384 -54.97458463 52.14641664 -47.71484375 63.52734375 C-46.7513157 64.87202172 -45.77544001 66.20812087 -44.77734375 67.52734375 C-42.71484375 70.52734375 -42.71484375 70.52734375 -42.51171875 73.2421875 C-41.33982095 78.07339361 -38.34965378 80.63560445 -34.90234375 84.08984375 C-33.644323 85.38134304 -32.38777654 86.67428027 -31.1328125 87.96875 C-30.53823242 88.57750977 -29.94365234 89.18626953 -29.33105469 89.81347656 C-27.32055488 91.94545672 -25.53188313 94.23017551 -23.71484375 96.52734375 C-22.05591193 97.87028856 -20.3900777 99.20479063 -18.71484375 100.52734375 C-17.72484375 102.01234375 -17.72484375 102.01234375 -16.71484375 103.52734375 C-17.20984375 105.01234375 -17.20984375 105.01234375 -17.71484375 106.52734375 C-22.03454888 104.92288184 -26.10215942 103.2020544 -29.33984375 99.83984375 C-30.75971097 98.18210588 -30.75971097 98.18210588 -33.71484375 98.52734375 C-34.04484375 99.18734375 -34.37484375 99.84734375 -34.71484375 100.52734375 C-42.8826913 96.82768414 -48.08186238 88.96072991 -53.40234375 82.02734375 C-54.22206665 80.95987915 -54.22206665 80.95987915 -55.05834961 79.87084961 C-58.55387103 75.245409 -61.72934591 70.49676385 -64.71484375 65.52734375 C-65.04484375 67.83734375 -65.37484375 70.14734375 -65.71484375 72.52734375 C-66.37484375 72.19734375 -67.03484375 71.86734375 -67.71484375 71.52734375 C-67.8828125 69.5859375 -67.8828125 69.5859375 -67.90234375 66.96484375 C-68.27333694 61.49269421 -69.87724983 57.30607798 -72.15234375 52.40234375 C-76.25807813 43.53627759 -79.79130021 34.75671314 -76.52734375 24.96484375 C-72.95613226 18.19185643 -68.6667329 13.76379121 -61.71484375 10.52734375 C-50.08570834 7.71384325 -39.40635548 12.8060094 -29.05859375 17.8125 C-28.26453125 18.19277344 -27.47046875 18.57304687 -26.65234375 18.96484375 C-25.96011719 19.31417969 -25.26789063 19.66351562 -24.5546875 20.0234375 C-23.94753906 20.18972656 -23.34039062 20.35601563 -22.71484375 20.52734375 C-21.72484375 19.86734375 -20.73484375 19.20734375 -19.71484375 18.52734375 C-20.20984375 17.25890625 -20.20984375 17.25890625 -20.71484375 15.96484375 C-22.10310557 11.19269373 -22.52700174 7.40813069 -20.52734375 2.77734375 C-14.67389372 -4.48900801 -7.98443908 -3.16522979 0 0 Z M-15.71484375 4.52734375 C-16.11034085 10.26205172 -15.9580154 14.56719888 -12.71484375 19.52734375 C-10.3735369 20.76527611 -8.01348539 21.59717902 -5.51171875 22.46484375 C15.78527691 30.55532255 32.64890729 51.65844016 42.28515625 71.52734375 C42.81833366 72.8199964 43.34471362 74.11547995 43.86328125 75.4140625 C44.99447547 78.73352109 44.99447547 78.73352109 48.03515625 79.96484375 C51.5862408 80.57945454 54.69175999 80.87286262 58.28515625 80.52734375 C60.46179517 77.26238537 60.61476304 75.8751553 60.00390625 72.078125 C52.21187893 44.4248976 25.33880846 20.35299057 1.28515625 6.52734375 C-2.70510439 4.47652014 -11.86878867 0.68128867 -15.71484375 4.52734375 Z M-8.71484375 26.52734375 C-4.47364308 34.61367966 0.79353564 40.19580212 7.50952148 46.24243164 C12.64552984 50.87330057 17.32149407 55.7441655 21.91796875 60.90625 C26.93945423 66.56316574 26.93945423 66.56316574 33.09765625 70.83984375 C34.14953125 71.39671875 35.20140625 71.95359375 36.28515625 72.52734375 C31.00608961 54.20105022 12.4866977 37.64514093 -3.51171875 28.21484375 C-6.40634554 26.37197637 -6.40634554 26.37197637 -8.71484375 26.52734375 Z " fill="#A3AEBA" transform="translate(91.71484375,6.47265625)"/>
<path d="M0 0 C9.8476771 4.48401592 18.14738261 10.4610751 26.28515625 17.52734375 C26.84332031 18.00719727 27.40148437 18.48705078 27.9765625 18.98144531 C43.30276665 32.27186017 62.22015343 51.52045217 65.75390625 72.28125 C65.99969591 76.40437149 65.7089736 79.6260298 63.34765625 83.08984375 C59.35915941 86.26436164 56.31587219 86.81161366 51.28515625 86.52734375 C49.25390625 86.0546875 49.25390625 86.0546875 47.41015625 85.46484375 C45.86328125 85.00078125 45.86328125 85.00078125 44.28515625 84.52734375 C43.29515625 85.18734375 42.30515625 85.84734375 41.28515625 86.52734375 C37.82421875 86.484375 37.82421875 86.484375 34.28515625 85.52734375 C32.30859375 83.2265625 32.30859375 83.2265625 30.66015625 80.21484375 C26.05197347 72.62864561 19.97189167 67.2763053 13.28515625 61.52734375 C13.76726562 62.275 14.249375 63.02265625 14.74609375 63.79296875 C15.37773438 64.7778125 16.009375 65.76265625 16.66015625 66.77734375 C17.28664062 67.751875 17.913125 68.72640625 18.55859375 69.73046875 C22.38491872 75.92876893 22.38491872 75.92876893 21.91015625 78.77734375 C21.70390625 79.35484375 21.49765625 79.93234375 21.28515625 80.52734375 C17.81986665 77.48208925 15.56864868 74.44383092 13.22265625 70.46484375 C6.77524895 60.10991687 -1.91168766 52.47253952 -12.31640625 46.24609375 C-14.77983851 44.4807677 -15.67060533 43.32835974 -16.71484375 40.52734375 C-11.96068253 41.02227842 -9.16263792 42.24857781 -5.33984375 45.08984375 C-4.02886719 46.05083984 -4.02886719 46.05083984 -2.69140625 47.03125 C-2.03914063 47.52496094 -1.386875 48.01867188 -0.71484375 48.52734375 C-0.71484375 46.51582951 -3.01434427 44.66236909 -4.21484375 43.21484375 C-8.20947279 38.31202196 -11.61939378 33.1699143 -14.953125 27.80078125 C-15.53449219 27.05054687 -16.11585937 26.3003125 -16.71484375 25.52734375 C-17.70484375 25.52734375 -18.69484375 25.52734375 -19.71484375 25.52734375 C-19.71484375 24.53734375 -19.71484375 23.54734375 -19.71484375 22.52734375 C-21.03484375 22.19734375 -22.35484375 21.86734375 -23.71484375 21.52734375 C-22.39484375 20.53734375 -21.07484375 19.54734375 -19.71484375 18.52734375 C-20.04484375 17.68171875 -20.37484375 16.83609375 -20.71484375 15.96484375 C-22.10310557 11.19269373 -22.52700174 7.40813069 -20.52734375 2.77734375 C-14.67389372 -4.48900801 -7.98443908 -3.16522979 0 0 Z M-15.71484375 4.52734375 C-16.11034085 10.26205172 -15.9580154 14.56719888 -12.71484375 19.52734375 C-10.3735369 20.76527611 -8.01348539 21.59717902 -5.51171875 22.46484375 C15.78527691 30.55532255 32.64890729 51.65844016 42.28515625 71.52734375 C42.81833366 72.8199964 43.34471362 74.11547995 43.86328125 75.4140625 C44.99447547 78.73352109 44.99447547 78.73352109 48.03515625 79.96484375 C51.5862408 80.57945454 54.69175999 80.87286262 58.28515625 80.52734375 C60.46179517 77.26238537 60.61476304 75.8751553 60.00390625 72.078125 C52.21187893 44.4248976 25.33880846 20.35299057 1.28515625 6.52734375 C-2.70510439 4.47652014 -11.86878867 0.68128867 -15.71484375 4.52734375 Z M-8.71484375 26.52734375 C-4.47364308 34.61367966 0.79353564 40.19580212 7.50952148 46.24243164 C12.64552984 50.87330057 17.32149407 55.7441655 21.91796875 60.90625 C26.93945423 66.56316574 26.93945423 66.56316574 33.09765625 70.83984375 C34.14953125 71.39671875 35.20140625 71.95359375 36.28515625 72.52734375 C31.00608961 54.20105022 12.4866977 37.64514093 -3.51171875 28.21484375 C-6.40634554 26.37197637 -6.40634554 26.37197637 -8.71484375 26.52734375 Z " fill="#9DDFEE" transform="translate(91.71484375,6.47265625)"/>
<path d="M0 0 C0.33 0.66 0.66 1.32 1 2 C1.66 2 2.32 2 3 2 C7 8.625 7 8.625 7 12 C7.66 12 8.32 12 9 12 C10.2890625 13.390625 10.2890625 13.390625 11.625 15.25 C12.07101563 15.85328125 12.51703125 16.4565625 12.9765625 17.078125 C14 19 14 19 14 23 C14.66 23 15.32 23 16 23 C16.89453125 25.078125 16.89453125 25.078125 17 28 C15.23018611 30.58936062 12.98112878 32.62582767 10.6875 34.75 C10.07970703 35.33910156 9.47191406 35.92820313 8.84570312 36.53515625 C4.39891582 40.80054209 4.39891582 40.80054209 2 42 C8.58864769 48.33812877 14.88213072 53.66812182 23 58 C23.22558594 57.46117187 23.45117188 56.92234375 23.68359375 56.3671875 C26.65325015 51.02709321 31.10719447 46.59708233 36 43 C39.51977051 42.59084635 41.86650466 43.45936479 45 45 C48.16245541 46.0541518 50.86948218 46.31275672 54.1875 46.5625 C55.27417969 46.64628906 56.36085938 46.73007813 57.48046875 46.81640625 C58.31191406 46.87699219 59.14335938 46.93757813 60 47 C47.36420094 62.55175269 47.36420094 62.55175269 37.89453125 64.4140625 C35.59741649 64.64679082 33.30354268 64.84202179 31 65 C30.20207031 65.06574219 29.40414062 65.13148438 28.58203125 65.19921875 C18.2344683 65.6762924 10.17043778 61.92353768 2.41015625 55.2578125 C-6.75918782 46.6680542 -16.44585173 35.83867043 -18.30078125 22.90234375 C-18.34127127 16.11351688 -17.09412762 9.45529248 -15 3 C-14.34 2.67 -13.68 2.34 -13 2 C-13.33 6.29 -13.66 10.58 -14 15 C-12.989375 13.824375 -11.97875 12.64875 -10.9375 11.4375 C-7.45464264 7.44998371 -3.79407791 3.69028855 0 0 Z " fill="#505559" transform="translate(18,95)"/>
<path d="M0 0 C4.46004554 1.59357943 8.7723461 3.51170816 13.09619141 5.43896484 C14.75949008 6.11399057 16.42474706 6.78436877 18.09619141 7.43896484 C18.54033729 9.68370214 18.95062556 11.93515945 19.34619141 14.18896484 C19.69423828 16.06841797 19.69423828 16.06841797 20.04931641 17.98583984 C20.09619141 21.43896484 20.09619141 21.43896484 18.17431641 23.69287109 C17.48853516 24.26908203 16.80275391 24.84529297 16.09619141 25.43896484 C15.24628465 30.85712044 16.76786044 34.57211776 19.12353516 39.32568359 C20.0590607 41.3582913 20.62820454 43.25666819 21.09619141 45.43896484 C20.04818359 45.41576172 19.00017578 45.39255859 17.92041016 45.36865234 C16.54151103 45.34989181 15.1626042 45.33169191 13.78369141 45.31396484 C13.09339844 45.29720703 12.40310547 45.28044922 11.69189453 45.26318359 C7.92483745 45.22678691 6.31187436 45.29517621 3.09619141 47.43896484 C2.36012642 51.00666037 2.36012642 51.00666037 2.09619141 54.43896484 C-8.78227651 44.8790991 -17.64278026 27.95947063 -19.22021484 13.54833984 C-19.40883453 8.99712936 -19.4074642 6.27839085 -17.02880859 2.31396484 C-12.27031629 -1.88470483 -5.95473611 -1.75480682 0 0 Z " fill="#101011" transform="translate(48.90380859375,24.56103515625)"/>
<path d="M0 0 C5.75 1.75 5.75 1.75 8 4 C11.03409367 4.50372984 13.9628387 4.4735359 17 4 C19.22977996 2.02098426 19.22977996 2.02098426 21 0 C23.29296875 0.33984375 23.29296875 0.33984375 26 1 C26.83660156 1.09539062 27.67320313 1.19078125 28.53515625 1.2890625 C33.22975399 1.91307395 35.36189691 2.21464235 38.4375 6 C39.26171875 7.8984375 39.26171875 7.8984375 40 10 C40.44279297 11.10214844 40.44279297 11.10214844 40.89453125 12.2265625 C43.49975731 19.53071227 44.49505332 27.59631056 42.40234375 35.16015625 C41.15045579 37.30407773 40.27589874 37.97781132 38 39 C24.5780097 41.96715 12.90972621 35.55035354 1.79199219 28.62451172 C-2.30302872 25.95224079 -6.29618804 23.19627492 -10 20 C-10 19.34 -10 18.68 -10 18 C-9.01 18 -8.02 18 -7 18 C-6.9071875 17.13375 -6.9071875 17.13375 -6.8125 16.25 C-5.68515666 13.12812615 -3.5835832 12.00227698 -1 10 C0.1577506 6.52674819 0.06866652 3.63932552 0 0 Z " fill="#3A3F42" transform="translate(93,93)"/>
<path d="M0 0 C5.29882271 5.00714439 11.9635157 12.31842997 13.58203125 19.62890625 C13.5625 21.8125 13.5625 21.8125 13 25 C12.34 25 11.68 25 11 25 C8.03 17.575 8.03 17.575 5 10 C0.15180735 11.39809872 0.15180735 11.39809872 -1.27734375 13.8828125 C-3.5949693 20.67282899 -2.02834967 25.61376181 0.9375 31.875 C7.7647539 45.0025721 19.70974543 59.55209835 34.05078125 64.7421875 C35.68447349 65.22018162 37.34082671 65.61977279 39 66 C39 66.66 39 67.32 39 68 C46.08057056 67.62304128 46.08057056 67.62304128 52 64 C52.99 64 53.98 64 55 64 C55.125 66.375 55.125 66.375 55 69 C52.27972753 71.72027247 50.73409508 71.29917861 46.9375 71.3125 C41.76471568 71.25527893 37.64275383 70.6057958 32.90234375 68.55859375 C30.3735906 67.81606459 29.42828628 67.92275655 27 69 C24.97774673 70.81042507 23.11362028 72.60349758 21.25 74.5625 C20.74339844 75.08263672 20.23679688 75.60277344 19.71484375 76.13867188 C18.46965595 77.41910084 17.23388498 78.70867554 16 80 C16.99 81.485 16.99 81.485 18 83 C7.97954223 81.58117412 0.08106074 72.64414422 -7 66 C-6 64 -6 64 -4.265625 63.17578125 C-1.25890194 61.61539566 0.82800115 59.54930297 3.25 57.1875 C4.14203125 56.33542969 5.0340625 55.48335937 5.953125 54.60546875 C8.23465802 52.17701489 8.23465802 52.17701489 8.296875 49.17578125 C8.19890625 48.45777344 8.1009375 47.73976562 8 47 C7.34 47 6.68 47 6 47 C5.731875 46.2575 5.46375 45.515 5.1875 44.75 C4.05593565 42.12953519 2.71182842 40.2565011 1 38 C1 37.34 1 36.68 1 36 C0.34 36 -0.32 36 -1 36 C-1.67154933 34.71086513 -2.33708859 33.41859796 -3 32.125 C-3.37125 31.40570313 -3.7425 30.68640625 -4.125 29.9453125 C-5 28 -5 28 -5 26 C-9.08509408 25.57005939 -9.08509408 25.57005939 -11.7265625 28.30078125 C-12.70310734 29.29457484 -13.66897041 30.29895526 -14.625 31.3125 C-15.11484375 31.81201172 -15.6046875 32.31152344 -16.109375 32.82617188 C-18.3326733 35.1193279 -20.22368197 37.33552295 -22 40 C-23.34302628 34.10327522 -23.49952708 29.61721676 -21 24 C-18.79319593 21.07415779 -16.33211383 18.47136254 -13.75 15.875 C-13.09386719 15.21129395 -12.43773437 14.54758789 -11.76171875 13.86376953 C-8.00846381 10.28866362 -5.41923271 8.15146924 0 8 C0 5.36 0 2.72 0 0 Z " fill="#26282A" transform="translate(26,71)"/>
<path d="M0 0 C0.66 0.33 1.32 0.66 2 1 C0.35 2.98 -1.3 4.96 -3 7 C-2.34 7 -1.68 7 -1 7 C0.28317892 10.84953676 0.06643637 13.94738135 0 18 C0.33 14.7 0.66 11.4 1 8 C1.66 8.33 2.32 8.66 3 9 C3.27246183 11.01319018 3.46517217 13.03725305 3.625 15.0625 C5.54656495 29.73491455 14.79730792 43.7371144 23.76171875 55.265625 C25 57 25 57 25 59 C25.66 59 26.32 59 27 59 C28.41170765 60.59675178 29.75399468 62.25513602 31.0625 63.9375 C35.38385785 69.34441634 40.01972888 74.2038245 45 79 C51.2437276 85.07287933 51.2437276 85.07287933 53 88 C52.505 89.485 52.505 89.485 52 91 C47.68029487 89.39553809 43.61268433 87.67471065 40.375 84.3125 C38.95513278 82.65476213 38.95513278 82.65476213 36 83 C35.67 83.66 35.34 84.32 35 85 C26.83215245 81.30034039 21.63298137 73.43338616 16.3125 66.5 C15.4927771 65.4325354 15.4927771 65.4325354 14.65649414 64.34350586 C11.16097272 59.71806525 7.98549784 54.9694201 5 50 C4.67 52.31 4.34 54.62 4 57 C3.34 56.67 2.68 56.34 2 56 C1.83203125 54.05859375 1.83203125 54.05859375 1.8125 51.4375 C1.44150681 45.96535046 -0.16240608 41.77873423 -2.4375 36.875 C-6.54323438 28.00893384 -10.07645646 19.22936939 -6.8125 9.4375 C-4.86641268 5.74664474 -2.78362752 3.08456023 0 0 Z " fill="#C6CBCF" transform="translate(22,22)"/>
<path d="M0 0 C2.55267278 2.65903415 2.992425 3.85354999 3.1875 7.625 C3.0946875 9.295625 3.0946875 9.295625 3 11 C3 11.66 3 12.32 3 13 C3.66 12.34 4.32 11.68 5 11 C7.30940023 17.9282007 5.67090827 27.20083441 3.15234375 33.9921875 C0.45266508 38.69603441 -3.88712192 42.29570731 -9 44 C-20.78742863 45.48402878 -31.93316206 41.09423562 -41.859375 35.0703125 C-45.67873355 33.16063323 -49.80209056 32.58718149 -54 32 C-54.33 32.66 -54.66 33.32 -55 34 C-55 32.35 -55 30.7 -55 29 C-51.04 29.99 -47.08 30.98 -43 32 C-42.34 30.68 -41.68 29.36 -41 28 C-38.78515625 26.60546875 -38.78515625 26.60546875 -36 26 C-32.80859375 26.86328125 -32.80859375 26.86328125 -29.4375 28.3125 C-24.33154324 30.50353264 -24.33154324 30.50353264 -19 32 C-18.67 30.68 -18.34 29.36 -18 28 C-17.10796875 27.98582031 -16.2159375 27.97164062 -15.296875 27.95703125 C-14.12640625 27.90933594 -12.9559375 27.86164063 -11.75 27.8125 C-10.00976562 27.76029297 -10.00976562 27.76029297 -8.234375 27.70703125 C-4.88730452 27.25284341 -4.88730452 27.25284341 -2.59765625 24.85546875 C-0.68996432 21.44587756 -0.55596096 19.38266945 -0.6875 15.5 C-0.71199219 14.3965625 -0.73648438 13.293125 -0.76171875 12.15625 C-0.97346198 9.35151994 -1.3717764 6.7376248 -2 4 C-1.34 4 -0.68 4 0 4 C0 2.68 0 1.36 0 0 Z " fill="#8B8C8E" transform="translate(136,104)"/>
<path d="M0 0 C1.32 0 2.64 0 4 0 C4 0.66 4 1.32 4 2 C4.73476562 2.25652344 5.46953125 2.51304688 6.2265625 2.77734375 C14.29030504 6.3322049 19.97538786 14.02047446 25 21 C20.45617821 21 18.00034422 18.21293135 14.47265625 15.53125 C11.91794615 13.64900445 11.91794615 13.64900445 8 14 C10.39932733 16.71228306 12.87507335 18.57414849 15.9375 20.4375 C26.22482191 27.17101979 35.47974632 36.97956629 41 48 C41 48.66 41 49.32 41 50 C41.99 50.33 42.98 50.66 44 51 C43.44150868 46.67365882 41.87944131 43.95651393 39.4375 40.375 C36 35.32595573 36 35.32595573 36 32 C53.53990177 47.63222864 53.53990177 47.63222864 57 55 C57 55.66 57 56.32 57 57 C59.31 57 61.62 57 64 57 C63.505 57.99 63.505 57.99 63 59 C51.27854059 60.47986361 42.97217073 55.25766127 33.9375 48.25 C32.2781203 46.84922493 30.63302268 45.43141494 29 44 C28.0203125 43.1646875 27.040625 42.329375 26.03125 41.46875 C15.34309843 32.1766917 1.73100416 18.35512543 0.0625 3.75 C0.041875 2.5125 0.02125 1.275 0 0 Z " fill="#474D51" transform="translate(69,35)"/>
<path d="M0 0 C0.99 0.845625 1.98 1.69125 3 2.5625 C3.64066406 3.1090625 4.28132813 3.655625 4.94140625 4.21875 C6.29601993 5.39086355 7.63770394 6.57811729 8.96484375 7.78125 C15.4095151 13.6005968 21.44935157 18.0404764 30 20 C30 20.66 30 21.32 30 22 C37.08057056 21.62304128 37.08057056 21.62304128 43 18 C43.99 18 44.98 18 46 18 C46.125 20.375 46.125 20.375 46 23 C43.27972753 25.72027247 41.73409508 25.29917861 37.9375 25.3125 C32.76471568 25.25527893 28.64275383 24.6057958 23.90234375 22.55859375 C21.3735906 21.81606459 20.42828628 21.92275655 18 23 C15.97774673 24.81042507 14.11362028 26.60349758 12.25 28.5625 C11.74339844 29.08263672 11.23679687 29.60277344 10.71484375 30.13867188 C9.46965595 31.41910084 8.23388498 32.70867554 7 34 C7.66 34.99 8.32 35.98 9 37 C1.83096068 36.02531845 -3.90258745 31.34710452 -8.625 26.0625 C-9.07875 25.381875 -9.5325 24.70125 -10 24 C-9.50371094 23.57589844 -9.00742187 23.15179688 -8.49609375 22.71484375 C-4.29973508 19.09180163 -0.29370054 15.37439638 3.5546875 11.3828125 C5 10 5 10 7 9 C6.4946875 8.51789063 5.989375 8.03578125 5.46875 7.5390625 C4.8190625 6.90742187 4.169375 6.27578125 3.5 5.625 C2.8503125 4.99851562 2.200625 4.37203125 1.53125 3.7265625 C0 2 0 2 0 0 Z " fill="#080809" transform="translate(35,117)"/>
<path d="M0 0 C1.83984375 0.10546875 1.83984375 0.10546875 4 1 C5.75390625 3.30078125 5.75390625 3.30078125 7.5625 6.3125 C16.27034913 19.9154851 28.25497013 31.53385841 42 40 C41.67 41.32 41.34 42.64 41 44 C34.49330806 45.02737241 30.0637898 41.63936586 25 38 C21.52366517 35.14018356 18.25274558 32.10964679 15 29 C14.37222656 28.44699219 13.74445313 27.89398438 13.09765625 27.32421875 C6.79018706 21.5602503 0.13487826 12.8804537 -1.0625 4.25 C-1 1 -1 1 0 0 Z " fill="#40464B" transform="translate(69,50)"/>
<path d="M0 0 C2.58401549 2.48065487 4.93531058 5.08466235 7.25 7.8125 C14.19285342 15.738802 21.76802654 20.93780122 31 26 C28 27 28 27 25.65234375 25.8828125 C18.46893483 21.23168442 12.0553858 16.0553858 6 10 C6.12375 11.794375 6.12375 11.794375 6.25 13.625 C6.25793381 18.10760162 4.84901039 20.49978723 2 24 C1.525625 24.639375 1.05125 25.27875 0.5625 25.9375 C-1 27 -1 27 -3.3125 27.125 C-8.11500538 25.11464891 -10.79982736 20.98289393 -13.4375 16.625 C-14.28039353 12.69149686 -13.80268907 8.9242577 -13 5 C-12 4 -12 4 -9.05859375 3.90234375 C-7.26615234 3.91974609 -7.26615234 3.91974609 -5.4375 3.9375 C-3.64119141 3.95103516 -3.64119141 3.95103516 -1.80859375 3.96484375 C-0.88175781 3.97644531 0.04507813 3.98804687 1 4 C0.67 2.68 0.34 1.36 0 0 Z " fill="#A2BBCA" transform="translate(71,69)"/>
<path d="M0 0 C5.07505051 0.36517891 7.69337958 3.13515841 11.125 6.5625 C14.86048587 10.70634784 14.86048587 10.70634784 20 12 C30.2507871 20.73565922 41.5295561 37.44740258 43.3984375 50.859375 C43.63886554 57.25845965 43.63886554 57.25845965 41.46875 59.77734375 C40.9840625 60.18082031 40.499375 60.58429688 40 61 C39.67 60.67 39.34 60.34 39 60 C36.32941149 59.85884839 33.67567762 59.95752893 31 60 C31 59.67 31 59.34 31 59 C33.475 58.505 33.475 58.505 36 58 C38.05155794 51.67436301 35.71644368 46.72245749 33 41 C25.16887279 26.21666886 14.46306545 13.348612 1.73046875 2.5390625 C1.15941406 2.03117187 0.58835937 1.52328125 0 1 C0 0.67 0 0.34 0 0 Z " fill="#ABF2FA" transform="translate(114,28)"/>
<path d="M0 0 C1.6875 0.125 1.6875 0.125 4 1 C5.20193224 2.40225428 6.3961791 3.81262623 7.53125 5.26953125 C9.13769308 7.16222881 10.86006472 8.70380509 12.75 10.3125 C19.73786142 16.28514382 26.27218715 22.80351719 32 30 C32 30.66 32 31.32 32 32 C32.515625 32.226875 33.03125 32.45375 33.5625 32.6875 C36.89547005 34.48217618 40.14703671 36.49965015 43 39 C43 39.66 43 40.32 43 41 C43.556875 41.18175781 44.11375 41.36351562 44.6875 41.55078125 C45.8321875 41.92783203 45.8321875 41.92783203 47 42.3125 C47.825 42.58320312 48.65 42.85390625 49.5 43.1328125 C51.71542969 43.90128967 53.84217185 44.7739034 56 45.6875 C60.3254138 47.36185373 64.42062651 47.28621084 69 47 C68.67 48.32 68.34 49.64 68 51 C52.90488686 52.44527679 42.58282573 44.8211958 31.30273438 35.61474609 C21.50258374 27.50953954 12.30338646 19.15997265 4.4375 9.125 C3.9950293 8.56498291 3.55255859 8.00496582 3.09667969 7.42797852 C0 3.36589968 0 3.36589968 0 0 Z " fill="#7F909A" transform="translate(85,40)"/>
<path d="M0 0 C9.79538533 1.50831597 17.62920711 8.82108 25 15 C25.33 14.01 25.66 13.02 26 12 C39.04271731 22.69446235 48.55367015 35.392124 55 51 C55 51.99 55 52.98 55 54 C51.23102942 53.49067965 49.43374192 52.92560053 47 50 C46.12137432 48.25119697 45.2939608 46.47633241 44.5 44.6875 C40.72318634 36.92666595 35.57047223 30.53119896 30 24 C29.42636719 23.32195313 28.85273437 22.64390625 28.26171875 21.9453125 C24.4480885 17.82619765 19.91684778 14.54160361 15.4375 11.1875 C14.79973633 10.70643799 14.16197266 10.22537598 13.50488281 9.72973633 C9.75804606 6.99633248 6.47225035 5.3796659 2 4 C0.625 1.875 0.625 1.875 0 0 Z " fill="#B1F1F8" transform="translate(81,30)"/>
<path d="M0 0 C0.33 0 0.66 0 1 0 C1.07476562 0.58265625 1.14953125 1.1653125 1.2265625 1.765625 C4.46862653 21.98084776 20.48609512 39.78801067 36.31298828 51.80517578 C43.45153517 56.86104386 51.2874362 62.15651664 60.125 62.0625 C61.22070312 62.05347656 62.31640625 62.04445312 63.4453125 62.03515625 C64.28835937 62.02355469 65.13140625 62.01195312 66 62 C78.95298585 86.52144828 78.95298585 86.52144828 77 99 C75.90624194 101.91195327 74.59584932 104.30700428 73 107 C72.06576355 103.98968256 71.95550089 103.13349732 73 100 C73.22718496 97.43365139 73.41608184 94.88321893 73.5625 92.3125 C73.62727539 91.2596582 73.62727539 91.2596582 73.69335938 90.18554688 C73.7991736 88.45724794 73.90006581 86.7286489 74 85 C72.02 86.485 72.02 86.485 70 88 C70 86.35 70 84.7 70 83 C70.33 83 70.66 83 71 83 C71.20970559 78.85906302 71.20970559 78.85906302 70 75 C69.67 75.66 69.34 76.32 69 77 C67.515 76.505 67.515 76.505 66 76 C65.18359375 73.78515625 65.18359375 73.78515625 64.4375 71.0625 C63.52944125 68.30537511 63.52944125 68.30537511 62 66 C58.73225846 64.53228558 55.5367683 64.33139348 52 64 C48.875 62.875 48.875 62.875 47 62 C46.34 63.32 45.68 64.64 45 66 C44.01 66 43.02 66 42 66 C42.33 63.69 42.66 61.38 43 59 C42.39414063 58.59910156 41.78828125 58.19820312 41.1640625 57.78515625 C34.60617908 53.33588457 28.76299452 48.4303259 23 43 C22.39542969 42.45988281 21.79085937 41.91976562 21.16796875 41.36328125 C12.17769559 33.00464321 0.48098616 18.54321664 -0.09765625 5.859375 C-0.04882812 2.9296875 -0.04882812 2.9296875 0 0 Z " fill="#B7C0C9" transform="translate(67,31)"/>
<path d="M0 0 C0.99 1.32 1.98 2.64 3 4 C2.01 4.66 1.02 5.32 0 6 C0.51597532 19.93133372 11.38690231 29.79648912 21 38.8125 C26.74296403 43.85880587 32.37964307 47.72329099 40 49 C40.495 50.98 40.495 50.98 41 53 C38.03 53 35.06 53 32 53 C31.67 52.01 31.34 51.02 31 50 C28.78679895 48.40414008 28.78679895 48.40414008 26.0625 46.875 C17.39669146 41.54046331 10.39566637 34.87158938 4 27 C3.67 26.67 3.34 26.34 3 26 C3 26.66 3 27.32 3 28 C-3.435 28.495 -3.435 28.495 -10 29 C-10.144375 30.44375 -10.28875 31.8875 -10.4375 33.375 C-10.875 37.75 -10.875 37.75 -12 40 C-14.09491746 36.59575912 -14.49573145 33.96585158 -14 30 C-12.24152913 27.67630635 -10.88296562 26.36536508 -8.1875 25.25 C-5.11705607 24.89909212 -2.08660641 24.94064218 1 25 C0.65066406 24.31292969 0.30132812 23.62585938 -0.05859375 22.91796875 C-0.51363281 22.01691406 -0.96867187 21.11585937 -1.4375 20.1875 C-1.88996094 19.29417969 -2.34242187 18.40085937 -2.80859375 17.48046875 C-4.89572265 13.13513482 -5.49807311 9.81470675 -5 5 C-2.5 2.0625 -2.5 2.0625 0 0 Z " fill="#73B2C5" transform="translate(69,45)"/>
<path d="M0 0 C3.3255324 3.22704102 6.2837777 6.53064164 9.125 10.1875 C15.55572363 18.13449793 22.77290751 25.38645375 32 30 C32 30.66 32 31.32 32 32 C32.99 32.33 33.98 32.66 35 33 C34.44150868 28.67365882 32.87944131 25.95651393 30.4375 22.375 C27 17.32595573 27 17.32595573 27 14 C44.53990177 29.63222864 44.53990177 29.63222864 48 37 C48 37.66 48 38.32 48 39 C50.31 39 52.62 39 55 39 C54.505 39.99 54.505 39.99 54 41 C42.27854059 42.47986361 33.97217073 37.25766127 24.9375 30.25 C23.27594985 28.85180012 21.6311688 27.43352718 20 26 C19.50048828 25.56606934 19.00097656 25.13213867 18.48632812 24.68505859 C10.05702491 17.33134272 3.61337956 10.84013869 0 0 Z " fill="#678A93" transform="translate(78,53)"/>
<path d="M0 0 C0.66 0 1.32 0 2 0 C4.66557258 6.05022986 6.51030705 11.38914524 7 18 C7.66 18 8.32 18 9 18 C11.71527193 20.56308854 13.94988499 23.35799635 14.06640625 27.17578125 C13.77729531 29.12817238 13.39337266 31.06591774 13 33 C13.33 33.66 13.66 34.32 14 35 C8.06091969 32.6648616 4.73895361 26.91209318 1 22 C0.51402344 21.38640625 0.02804688 20.7728125 -0.47265625 20.140625 C-4.07269314 14.92766835 -3.35657708 9.03209552 -3 3 C-2.01 2.67 -1.02 2.34 0 2 C0 1.34 0 0.68 0 0 Z " fill="#919598" transform="translate(29,88)"/>
<path d="M0 0 C3.29984422 3.01700043 5.38648705 6.10556967 7.5625 10 C9.53870009 13.5210692 11.53967277 16.80085731 14 20 C14.28875 20.61875 14.5775 21.2375 14.875 21.875 C16.5072618 24.95816117 18.72127152 27.36147229 21 30 C20.29101562 30.37898438 19.58203125 30.75796875 18.8515625 31.1484375 C15.58484682 33.26956521 13.03628958 35.81748572 10.375 38.625 C5.403125 43.865625 5.403125 43.865625 2 45 C0.35 43.35 -1.3 41.7 -3 40 C-2 38 -2 38 -0.265625 37.17578125 C2.74109806 35.61539566 4.82800115 33.54930297 7.25 31.1875 C8.14203125 30.33542969 9.0340625 29.48335937 9.953125 28.60546875 C12.23465802 26.17701489 12.23465802 26.17701489 12.296875 23.17578125 C12.14992188 22.09876953 12.14992188 22.09876953 12 21 C11.34 21 10.68 21 10 21 C9.731875 20.2575 9.46375 19.515 9.1875 18.75 C8.05593565 16.12953519 6.71182842 14.2565011 5 12 C5 11.34 5 10.68 5 10 C4.34 10 3.68 10 3 10 C0 3.375 0 3.375 0 0 Z " fill="#2A2D2F" transform="translate(22,97)"/>
<path d="M0 0 C2.55267278 2.65903415 2.992425 3.85354999 3.1875 7.625 C3.0946875 9.295625 3.0946875 9.295625 3 11 C3 11.66 3 12.32 3 13 C3.66 12.34 4.32 11.68 5 11 C6.14951318 14.44853953 5.96451034 16.76146211 5.6875 20.375 C5.56955078 22.05722656 5.56955078 22.05722656 5.44921875 23.7734375 C5.01796349 26.87097532 4.42547434 29.22407629 3 32 C-1.82863853 34.53503523 -7.65789581 34.91553533 -13 34 C-15.2787011 32.54345832 -16.34904101 31.20127866 -18 29 C-17.10796875 28.91363281 -16.2159375 28.82726562 -15.296875 28.73828125 C-14.12640625 28.59777344 -12.9559375 28.45726562 -11.75 28.3125 C-10.58984375 28.18488281 -9.4296875 28.05726563 -8.234375 27.92578125 C-4.2051115 26.77247757 -3.05062603 25.62494528 -1 22 C-0.48169905 18.82164643 -0.48169905 18.82164643 -0.6875 15.5 C-0.71199219 14.3965625 -0.73648438 13.293125 -0.76171875 12.15625 C-0.97346198 9.35151994 -1.3717764 6.7376248 -2 4 C-1.34 4 -0.68 4 0 4 C0 2.68 0 1.36 0 0 Z " fill="#9CA6B1" transform="translate(136,104)"/>
<path d="M0 0 C1.31981357 2.63962714 0.73653383 3.98096258 0.25 6.875 C-0.82942315 18.07766189 5.90194313 26.85062932 12.20703125 35.48046875 C14 38 14 38 14 39 C12.02 39 10.04 39 8 39 C8.33 40.65 8.66 42.3 9 44 C2.48923735 38.25520943 -3.22674299 29.86089853 -4.21484375 21.09375 C-4.52649151 14.21256738 -2.8901196 7.58114182 -1 1 C-0.67 0.67 -0.34 0.34 0 0 Z " fill="#9FA0A1" transform="translate(4,97)"/>
<path d="M0 0 C4.58458544 0.49977312 7.31775146 1.55671464 11 4.3125 C11.86238281 4.94800781 12.72476563 5.58351563 13.61328125 6.23828125 C14.40089844 6.81964844 15.18851563 7.40101562 16 8 C17.051875 8.66 18.10375 9.32 19.1875 10 C24.56673247 13.82523198 28.90129338 18.12279243 31.953125 24.0390625 C33.73284065 27.37270898 35.86620752 30.5013118 37.92578125 33.66796875 C39 36 39 36 38.66796875 38.30078125 C38.44753906 38.86152344 38.22710937 39.42226562 38 40 C34.5347104 36.9547455 32.28349243 33.91648717 29.9375 29.9375 C23.4900927 19.58257312 14.80315609 11.94519577 4.3984375 5.71875 C1.93500524 3.95342395 1.04423842 2.80101599 0 0 Z " fill="#4AC1D3" transform="translate(75,47)"/>
<path d="M0 0 C5.27288079 0.41890478 10.33201628 1.7405861 15.4375 3.0625 C16.16904297 3.24876953 16.90058594 3.43503906 17.65429688 3.62695312 C19.43703198 4.0813758 21.21863787 4.54022466 23 5 C23 5.99 23 6.98 23 8 C24.32 7.67 25.64 7.34 27 7 C24.49293458 9.74583356 22.59376306 10.79934638 18.828125 11.2734375 C10.25353145 11.61122452 2.83515566 9.26877543 -5 6 C-5.66 5.34 -6.32 4.68 -7 4 C-5.824375 3.566875 -5.824375 3.566875 -4.625 3.125 C-1.90328368 2.15087746 -1.90328368 2.15087746 0 0 Z " fill="#C3C2C1" transform="translate(106,137)"/>
<path d="M0 0 C6.68210114 0.66430245 12.17483419 2.76379677 18 6 C18 6.66 18 7.32 18 8 C19.98 7.34 21.96 6.68 24 6 C23.34 7.65 22.68 9.3 22 11 C22.5775 11.061875 23.155 11.12375 23.75 11.1875 C27.60990894 12.58135601 29.35861283 15.81343373 31.25 19.3125 C31.4975 19.869375 31.745 20.42625 32 21 C28.88626628 19.50079488 25.87771795 17.91847864 23 16 C23 15.34 23 14.68 23 14 C21.68 14 20.36 14 19 14 C18.67 14.99 18.34 15.98 18 17 C17.67 15.02 17.34 13.04 17 11 C16.32582031 10.896875 15.65164062 10.79375 14.95703125 10.6875 C10.69599421 9.69682296 6.78694395 7.91674999 2.79101562 6.171875 C-1.83652022 4.23542923 -5.99905937 3.44403468 -11 3 C-11 2.67 -11 2.34 -11 2 C-10.28972656 1.93941406 -9.57945313 1.87882812 -8.84765625 1.81640625 C-7.46900391 1.69072266 -7.46900391 1.69072266 -6.0625 1.5625 C-5.14597656 1.48128906 -4.22945312 1.40007813 -3.28515625 1.31640625 C-1.03840268 1.23955024 -1.03840268 1.23955024 0 0 Z " fill="#849BA9" transform="translate(50,21)"/>
<path d="M0 0 C2 2 2 2 2.1953125 3.9453125 C2.13020833 5.96354167 2.06510417 7.98177083 2 10 C2.66 10 3.32 10 4 10 C4.12375 10.9075 4.2475 11.815 4.375 12.75 C6.55050053 17.10100105 8.70263375 17.33494153 13.13671875 18.875 C20.31604222 21.69579831 27.53654642 26.53654642 33 32 C33.875 34.8125 33.875 34.8125 34 37 C31.08514803 35.10928521 28.2454733 33.18486261 25.46875 31.09375 C19.87696189 26.88420165 14.56623276 23.4643639 8 21 C8.515625 21.928125 9.03125 22.85625 9.5625 23.8125 C11 27 11 27 10 30 C1.91205898 21.01339887 -0.23441258 11.72062891 0 0 Z " fill="#69C7D9" transform="translate(73,9)"/>
<path d="M0 0 C3.01729419 1.50864709 3.36592542 3.80462514 4.625 6.875 C5.07101563 7.94492188 5.51703125 9.01484375 5.9765625 10.1171875 C7 13 7 13 7 16 C7.66 16 8.32 16 9 16 C8.88637738 17.4800841 8.75877092 18.95910074 8.625 20.4375 C8.55539063 21.26121094 8.48578125 22.08492187 8.4140625 22.93359375 C8.27742188 23.61550781 8.14078125 24.29742187 8 25 C7.34 25.33 6.68 25.66 6 26 C5.80664062 25.33613281 5.61328125 24.67226562 5.4140625 23.98828125 C3.79110946 18.46469965 3.79110946 18.46469965 1.8125 13.0625 C1 11 1 11 1 8 C0.34 8 -0.32 8 -1 8 C-1 8.66 -1 9.32 -1 10 C-1.99 10.495 -1.99 10.495 -3 11 C-3.46751788 13.35599235 -3.46751788 13.35599235 -3.625 16.0625 C-3.69976563 16.98160156 -3.77453125 17.90070313 -3.8515625 18.84765625 C-3.90054687 19.55792969 -3.94953125 20.26820312 -4 21 C-6.84772511 18.15227489 -7.18525013 15.56527232 -7.3125 11.6875 C-7.28917819 6.92985126 -5.98044903 4.63242225 -3 1 C-2.01 1.33 -1.02 1.66 0 2 C0 1.34 0 0.68 0 0 Z " fill="#666869" transform="translate(30,80)"/>
<path d="M0 0 C0.33 0 0.66 0 1 0 C1.103125 0.99 1.20625 1.98 1.3125 3 C1.93096117 7.24450749 3.38730529 11.04651634 5 15 C5.47373047 16.29357422 5.47373047 16.29357422 5.95703125 17.61328125 C9.01506955 25.59875935 13.25643088 32.49258293 17.890625 39.62890625 C20 43 20 43 21 46 C20.34 46.66 19.68 47.32 19 48 C0.57972797 21.38874635 0.57972797 21.38874635 -3 8 C-2.67 7.34 -2.34 6.68 -2 6 C-1.67 6.33 -1.34 6.66 -1 7 C-0.67 4.69 -0.34 2.38 0 0 Z " fill="#9BA8B7" transform="translate(28,33)"/>
<path d="M0 0 C3.23119243 0.40389905 4.29767558 1.3446443 6.625 3.578125 C7.305625 4.21363281 7.98625 4.84914062 8.6875 5.50390625 C9.326875 6.10589844 9.96625 6.70789063 10.625 7.328125 C12.28151812 8.67404597 13.94306068 10.0141099 15.625 11.328125 C14.965 11.328125 14.305 11.328125 13.625 11.328125 C13.625 12.648125 13.625 13.968125 13.625 15.328125 C12.635 15.328125 11.645 15.328125 10.625 15.328125 C10.625 14.668125 10.625 14.008125 10.625 13.328125 C10.05652344 13.32554687 9.48804688 13.32296875 8.90234375 13.3203125 C2.38113543 12.99370774 -0.91389116 11.01874426 -5.375 6.328125 C-4.64484218 2.67733591 -4.04162209 0.558382 0 0 Z " fill="#494949" transform="translate(23.375,141.671875)"/>
<path d="M0 0 C3 2 3 2 3.9375 4.8125 C4 8 4 8 2.4375 10.875 C0 13 0 13 -3.0625 13.5 C-6.33049466 12.94374559 -7.0274709 12.55635237 -9 10 C-9.51171875 7.73828125 -9.51171875 7.73828125 -9.6875 5.3125 C-9.75324219 4.50425781 -9.81898437 3.69601563 -9.88671875 2.86328125 C-9.92410156 2.24839844 -9.96148437 1.63351563 -10 1 C-6.87293041 -0.5635348 -3.42017557 -0.39958487 0 0 Z " fill="#CEDCE6" transform="translate(69,76)"/>
<path d="M0 0 C2.30430135 2.897221 3.97584247 5.81704075 5.625 9.125 C9.72784674 16.74749581 14.67850844 23.95362195 23 27 C24.9921875 28.3671875 24.9921875 28.3671875 26.875 29.875 C31.83487127 33.69531516 36.6128841 37.22580413 43 38 C43.495 39.98 43.495 39.98 44 42 C41.03 42 38.06 42 35 42 C34.67 41.01 34.34 40.02 34 39 C31.78679895 37.40414008 31.78679895 37.40414008 29.0625 35.875 C23.06357592 32.18215583 18.01738809 27.92874166 13 23 C12.43539062 22.44828125 11.87078125 21.8965625 11.2890625 21.328125 C6.43828388 16.14369494 0 7.21460439 0 0 Z " fill="#6D8690" transform="translate(66,56)"/>
<path d="M0 0 C9.79538533 1.50831597 17.62920711 8.82108 25 15 C25.33 14.01 25.66 13.02 26 12 C27.62866544 13.43334578 29.25280994 14.87182979 30.875 16.3125 C31.77992187 17.11300781 32.68484375 17.91351563 33.6171875 18.73828125 C36 21 36 21 38 24 C37.505 25.485 37.505 25.485 37 27 C36.46375 26.38125 35.9275 25.7625 35.375 25.125 C33.16503894 22.83269135 33.16503894 22.83269135 30.3125 22.25 C26.94477389 20.97915996 25.57456157 19.8592119 23 17.4375 C19.11863996 13.8277027 15.06448897 10.86564436 10.625 8 C9.71427734 7.40336548 9.71427734 7.40336548 8.78515625 6.79467773 C5.1839679 4.5049525 5.1839679 4.5049525 1 4 C0.67 2.68 0.34 1.36 0 0 Z " fill="#92E4F0" transform="translate(81,30)"/>
<path d="M0 0 C6.82539854 2.53514803 10.6586754 5.61393343 15.29296875 11.13671875 C17.28584268 13.31200676 19.41949512 14.59915449 22 16 C22.66 16.99 23.32 17.98 24 19 C22.66666667 18.33333333 21.33333333 17.66666667 20 17 C18.948125 16.505 17.89625 16.01 16.8125 15.5 C14 14 14 14 13 12 C12.01 12 11.02 12 10 12 C9.67 12.66 9.34 13.32 9 14 C5.54798361 12.52278578 3.35038064 10.56205999 0.75 7.875 C0.04359375 7.15054688 -0.6628125 6.42609375 -1.390625 5.6796875 C-2.18726563 4.84824219 -2.18726563 4.84824219 -3 4 C-2.01 2.68 -1.02 1.36 0 0 Z " fill="#A2A3A3" transform="translate(48,93)"/>
<path d="M0 0 C4.81819969 0.07692336 8.06636482 1.09712512 12.3125 3.3125 C12 5.1875 12 5.1875 11.3125 7.3125 C8.10869983 9.44836678 7.29310033 9.54382175 3.625 9.4375 C2.81675781 9.41945312 2.00851563 9.40140625 1.17578125 9.3828125 C0.25345703 9.34800781 0.25345703 9.34800781 -0.6875 9.3125 C-0.6875 8.6525 -0.6875 7.9925 -0.6875 7.3125 C-2.3375 6.9825 -3.9875 6.6525 -5.6875 6.3125 C-6.3125 4.4375 -6.3125 4.4375 -6.6875 2.3125 C-4.21750317 -0.15749683 -3.40535184 0.0156448 0 0 Z " fill="#7B7A79" transform="translate(65.6875,129.6875)"/>
<path d="M0 0 C0.99 0.66 1.98 1.32 3 2 C3.53585437 6.66958804 3.70710417 8.87838648 1.1875 12.875 C-1 15 -1 15 -4 17 C-4.33 17.99 -4.66 18.98 -5 20 C-6.703125 20.99609375 -6.703125 20.99609375 -9 21 C-11.12217932 19.41429339 -12.8833556 17.90709742 -14.75 16.0625 C-15.25660156 15.58103516 -15.76320313 15.09957031 -16.28515625 14.60351562 C-17.53412504 13.41346046 -18.7685103 12.20813387 -20 11 C-18 10 -18 10 -15.9765625 10.59375 C-14.41338801 11.1961694 -12.85088212 11.80032667 -11.2890625 12.40625 C-8.70047322 13.07769295 -7.45877491 13.01365985 -5 12 C-1.83394453 8.1102747 -0.47451785 4.98243747 0 0 Z " fill="#626567" transform="translate(91,91)"/>
<path d="M0 0 C3.93673644 1.31224548 6.22719294 2.91910327 9 6 C8.30519531 5.87625 7.61039063 5.7525 6.89453125 5.625 C2.51947675 6.19180868 0.59844667 8.85914868 -2.3125 12 C-2.86228516 12.57234375 -3.41207031 13.1446875 -3.97851562 13.734375 C-5.3305941 15.14523949 -6.66688335 16.57120512 -8 18 C-7.34 18.99 -6.68 19.98 -6 21 C-10.40114397 20.49701212 -12.71195019 18.91227269 -16 16 C-15.49210937 15.63648438 -14.98421875 15.27296875 -14.4609375 14.8984375 C-9.89023079 11.56028092 -5.95184223 8.04374554 -2 4 C-1.01 3.34 -0.02 2.68 1 2 C0.67 1.34 0.34 0.68 0 0 Z " fill="#1E2022" transform="translate(50,133)"/>
<path d="M0 0 C1.64787163 1.40755702 3.2942365 2.81691055 4.93359375 4.234375 C6.28473151 5.38884432 7.65156603 6.52525476 9.03515625 7.640625 C14.05470032 11.78005633 17.90438579 16.2426266 21 22 C21 22.66 21 23.32 21 24 C13.96646439 23.04088151 13.96646439 23.04088151 11 21 C9.6872445 18.72858752 8.56897691 16.56707189 7.5 14.1875 C5.43076937 9.66637279 3.16074337 5.8608203 0 2 C0 1.34 0 0.68 0 0 Z " fill="#596065" transform="translate(104,67)"/>
<path d="M0 0 C10.21685166 3.73308041 16.54733451 11.56424583 23 20 C19.24196648 20 18.22102252 18.91576689 15.25 16.6875 C12.2075871 14.44899474 9.68759046 12.73869894 6.0625 11.6875 C2.37568369 9.65598897 2.24362415 8.7167715 1.0625 4.8125 C0.68075827 3.21467086 0.31752543 1.61181957 0 0 Z " fill="#25292B" transform="translate(71,36)"/>
<path d="M0 0 C3.43256595 3.94250369 5.60083062 7.94931193 7.8125 12.625 C11.49271796 20.19880703 15.49314693 27.51767745 20.69921875 34.171875 C22 36 22 36 22 38 C22.66 38 23.32 38 24 38 C25.25664978 40.90600261 26 42.79604584 26 46 C22.18293034 42.4010486 18.57001108 38.61508373 16 34 C16 33.01 16 32.02 16 31 C15.34 31 14.68 31 14 31 C11.38782216 27.17056045 9.23003736 23.06116718 7 19 C6.505 18.10667969 6.01 17.21335937 5.5 16.29296875 C2.65348113 10.91338695 1.06356292 5.99462735 0 0 Z " fill="#E4EBF1" transform="translate(25,43)"/>
<path d="M0 0 C0.33 0 0.66 0 1 0 C1.07476562 0.58265625 1.14953125 1.1653125 1.2265625 1.765625 C4.68208363 23.31181557 21.63084453 39.96868908 38 53 C38.94359375 53.75539062 39.8871875 54.51078125 40.859375 55.2890625 C41.56578125 55.85367188 42.2721875 56.41828125 43 57 C35.38417335 57 27.69055256 48.03643858 22.4375 42.875 C13.15170411 33.50960374 0.53150343 19.65055522 -0.09765625 5.859375 C-0.04882812 2.9296875 -0.04882812 2.9296875 0 0 Z " fill="#ADCBD9" transform="translate(67,31)"/>
<path d="M0 0 C4.59664484 1.29978764 7.79450951 3.08422926 11.5625 6 C15.20162561 8.86784872 15.20162561 8.86784872 19.3515625 10.8046875 C23.55852512 12.70340514 26.52006071 15.9428338 29.8125 19.125 C30.85180664 20.11306641 30.85180664 20.11306641 31.91210938 21.12109375 C33.61428781 22.74109805 35.30987919 24.36743551 37 26 C36.67 27.32 36.34 28.64 36 30 C35.26136719 29.31035156 34.52273437 28.62070312 33.76171875 27.91015625 C24.35599623 19.17526581 14.74625077 10.97577804 4.06274414 3.82958984 C2.69318051 2.90877331 1.34423168 1.95741779 0 1 C0 0.67 0 0.34 0 0 Z " fill="#9FDEE9" transform="translate(95,11)"/>
<path d="M0 0 C2.2265625 1.14453125 2.2265625 1.14453125 4.625 2.8125 C5.42164062 3.35519531 6.21828125 3.89789063 7.0390625 4.45703125 C9 6 9 6 10 8 C9.34 8 8.68 8 8 8 C8 9.32 8 10.64 8 12 C7.01 12 6.02 12 5 12 C5 11.34 5 10.68 5 10 C4.29488281 9.88785156 3.58976562 9.77570313 2.86328125 9.66015625 C-0.27389512 8.93685092 -2.90127906 7.80542309 -5.8125 6.4375 C-7.27623047 5.75494141 -7.27623047 5.75494141 -8.76953125 5.05859375 C-9.50558594 4.70925781 -10.24164063 4.35992187 -11 4 C-11 3.67 -11 3.34 -11 3 C-8.36 3 -5.72 3 -3 3 C-3 2.34 -3 1.68 -3 1 C-2.01 0.67 -1.02 0.34 0 0 Z " fill="#3D3D3D" transform="translate(73,123)"/>
<path d="M0 0 C0.66 0.33 1.32 0.66 2 1 C2 1.66 2 2.32 2 3 C2.92039063 3.11021484 2.92039063 3.11021484 3.859375 3.22265625 C6 4 6 4 7.265625 5.93359375 C9.58631469 11.83661792 11.29690623 17.63230724 10 24 C8.47265625 25.78515625 8.47265625 25.78515625 7 27 C6.67 26.67 6.34 26.34 6 26 C3.32941149 25.85884839 0.67567762 25.95752893 -2 26 C-2 25.67 -2 25.34 -2 25 C1.465 24.505 1.465 24.505 5 24 C5.32237613 17.23010127 4.41548128 12.29203416 2 6 C1.33333333 4 0.66666667 2 0 0 Z " fill="#A2EEF6" transform="translate(147,62)"/>
<path d="M0 0 C0.70382813 0.71414062 1.40765625 1.42828125 2.1328125 2.1640625 C4.96273065 4.99398065 7.90890411 7.68926242 10.875 10.375 C17.69725389 16.59902997 24.07256343 22.91599044 30 30 C29.67 30.66 29.34 31.32 29 32 C24.74826144 28.61025775 21.81266668 25.68777779 19 21 C18.37996094 20.84917969 17.75992188 20.69835937 17.12109375 20.54296875 C9.74167916 18.65394734 3.81941827 7.98210186 0 2 C0 1.34 0 0.68 0 0 Z " fill="#B2BCC4" transform="translate(87,40)"/>
<path d="M0 0 C5.59436889 3.06968952 7.72927754 6.34382752 10.375 12.0625 C10.72949219 12.78244141 11.08398438 13.50238281 11.44921875 14.24414062 C12.92348442 17.30936096 14 19.55868325 14 23 C10.31245243 22.50168276 8.39509338 21.89932357 6 19 C6.66 19 7.32 19 8 19 C6.17608114 14.17825707 4.38209769 9.44636502 1.75 5 C0 2 0 2 0 0 Z " fill="#8EE7F5" transform="translate(122,61)"/>
<path d="M0 0 C0.33 0.99 0.66 1.98 1 3 C0.67 3.33 0.34 3.66 0 4 C-0.07226502 5.85287502 -0.0838122 7.70833878 -0.0625 9.5625 C-0.05347656 10.57441406 -0.04445313 11.58632812 -0.03515625 12.62890625 C-0.02355469 13.41136719 -0.01195313 14.19382812 0 15 C-0.99 15.33 -1.98 15.66 -3 16 C-3 15.34 -3 14.68 -3 14 C-7.08509408 13.57005939 -7.08509408 13.57005939 -9.7265625 16.30078125 C-10.70310734 17.29457484 -11.66897041 18.29895526 -12.625 19.3125 C-13.11484375 19.81201172 -13.6046875 20.31152344 -14.109375 20.82617188 C-16.3326733 23.1193279 -18.22368197 25.33552295 -20 28 C-20.625 25.6875 -20.625 25.6875 -21 23 C-19 20 -19 20 -16.6875 18.1875 C-13.63130716 15.69990118 -11.44844102 13.07804014 -9 10 C-4.125 10.875 -4.125 10.875 -3 12 C-2.95101563 11.38511719 -2.90203125 10.77023438 -2.8515625 10.13671875 C-2.77679687 9.32847656 -2.70203125 8.52023438 -2.625 7.6875 C-2.55539063 6.88699219 -2.48578125 6.08648437 -2.4140625 5.26171875 C-2 3 -2 3 0 0 Z " fill="#373B3E" transform="translate(24,83)"/>
<path d="M0 0 C5.27558235 0.65041426 7.02079299 2.69640549 10.28125 6.671875 C12.89228144 10.20863577 15.5000109 13.84378019 17 18 C16.625 20.265625 16.625 20.265625 16 22 C11.57525563 18.11158828 8.77072024 13.65748104 5.74609375 8.62109375 C4.08173684 5.93669894 4.08173684 5.93669894 1.78515625 3.78515625 C1.19605469 3.19605469 0.60695313 2.60695313 0 2 C0 1.34 0 0.68 0 0 Z " fill="#7FDBE8" transform="translate(97,65)"/>
<path d="M0 0 C0.61875 0.78375 1.2375 1.5675 1.875 2.375 C3.89858661 4.96837647 3.89858661 4.96837647 6 7 C5.94140625 8.875 5.94140625 8.875 5.5625 11 C4.94303456 14.10060539 4.94303456 14.10060539 6 17 C1.91667098 15.44533803 -0.08208993 12.74912156 -2.75 9.375 C-3.54921875 8.37210938 -4.3484375 7.36921875 -5.171875 6.3359375 C-5.77515625 5.56507812 -6.3784375 4.79421875 -7 4 C-4.92446352 3.4465236 -3.15634036 3 -1 3 C-0.67 2.01 -0.34 1.02 0 0 Z " fill="#A2A3A4" transform="translate(37,106)"/>
<path d="M0 0 C0.99 0.33 1.98 0.66 3 1 C3 4.63 3 8.26 3 12 C5.475 12.99 5.475 12.99 8 14 C9.61811373 14.84893089 11.22305956 15.72352632 12.8125 16.625 C13.60269531 17.07101563 14.39289063 17.51703125 15.20703125 17.9765625 C15.79871094 18.31429687 16.39039062 18.65203125 17 19 C14 20 14 20 11.65234375 19.06640625 C4.86831336 15.30834625 -1.10579287 11.03756531 -7 6 C-6.01 5.34 -5.02 4.68 -4 4 C-2.64748503 2.68612831 -1.31054623 1.35573748 0 0 Z " fill="#1D1F20" transform="translate(91,107)"/>
<path d="M0 0 C1.16672651 2.33345302 1.04101573 3.54160754 0.9375 6.125 C0.87144484 12.97271778 2.41044089 18.12617601 6 24 C6 25.32 6 26.64 6 28 C3 27 3 27 1 25 C0.34 25 -0.32 25 -1 25 C-1 24.01 -1 23.02 -1 22 C-2.32 21.67 -3.64 21.34 -5 21 C-3.68 20.01 -2.36 19.02 -1 18 C-1.33 17.154375 -1.66 16.30875 -2 15.4375 C-3.44065558 10.48524644 -3.88615694 6.73539067 -1.5 2.0625 C-1.005 1.381875 -0.51 0.70125 0 0 Z " fill="#C6ECF3" transform="translate(73,7)"/>
<path d="M0 0 C1.26328125 0.02707031 2.5265625 0.05414063 3.828125 0.08203125 C4.79234375 0.11683594 5.7565625 0.15164062 6.75 0.1875 C6.75 0.5175 6.75 0.8475 6.75 1.1875 C6.06292969 1.29707031 5.37585938 1.40664062 4.66796875 1.51953125 C3.76691406 1.67808594 2.86585937 1.83664063 1.9375 2 C1.04417969 2.15082031 0.15085937 2.30164063 -0.76953125 2.45703125 C-3.50351328 3.26215667 -4.64882373 3.83695167 -6.25 6.1875 C-6.43376339 8.34896108 -6.43376339 8.34896108 -6 10.625 C-5.89171875 11.38683594 -5.7834375 12.14867188 -5.671875 12.93359375 C-5.27659843 15.04539542 -4.79874236 17.110794 -4.25 19.1875 C-5.93933922 17.5438186 -7.60259924 15.8732124 -9.25 14.1875 C-10.178125 13.259375 -10.178125 13.259375 -11.125 12.3125 C-12.87960995 8.99823677 -12.21298382 6.71844068 -11.25 3.1875 C-7.8731837 -0.39471875 -4.73699027 -0.13158306 0 0 Z " fill="#838B93" transform="translate(62.25,68.8125)"/>
<path d="M0 0 C1.04414062 0.59167969 1.04414062 0.59167969 2.109375 1.1953125 C2.81578125 1.58460938 3.5221875 1.97390625 4.25 2.375 C4.78109375 2.68695313 5.3121875 2.99890625 5.859375 3.3203125 C5.859375 3.6503125 5.859375 3.9803125 5.859375 4.3203125 C4.910625 4.6090625 3.961875 4.8978125 2.984375 5.1953125 C-0.19274078 6.08856359 -0.19274078 6.08856359 -2.140625 8.3203125 C-5.0390625 8.11328125 -5.0390625 8.11328125 -8.515625 7.5078125 C-10.22878906 7.21970703 -10.22878906 7.21970703 -11.9765625 6.92578125 C-14.39574776 6.46285074 -16.76345391 5.95851853 -19.140625 5.3203125 C-19.470625 5.9803125 -19.800625 6.6403125 -20.140625 7.3203125 C-20.140625 5.6703125 -20.140625 4.0203125 -20.140625 2.3203125 C-14.200625 3.8053125 -14.200625 3.8053125 -8.140625 5.3203125 C-7.480625 4.0003125 -6.820625 2.6803125 -6.140625 1.3203125 C-3.76136682 -0.42914205 -2.85289006 -0.90584465 0 0 Z " fill="#817F80" transform="translate(101.140625,130.6796875)"/>
<path d="M0 0 C1.98 1.65 3.96 3.3 6 5 C5.29101562 5.54269531 4.58203125 6.08539063 3.8515625 6.64453125 C0.28583049 9.58992358 -2.87796003 12.86255149 -6.0703125 16.19726562 C-8.3775328 18.55896196 -9.81681529 19.93893843 -13 21 C-13 17 -13 17 -11.80664062 15.41601562 C-11.26201172 14.91779297 -10.71738281 14.41957031 -10.15625 13.90625 C-9.56972656 13.35066406 -8.98320312 12.79507813 -8.37890625 12.22265625 C-7.12630208 11.07421875 -5.87369792 9.92578125 -4.62109375 8.77734375 C-4.03457031 8.22175781 -3.44804688 7.66617188 -2.84375 7.09375 C-2.29912109 6.59552734 -1.75449219 6.09730469 -1.19335938 5.58398438 C0.4011546 3.7980692 0.4011546 3.7980692 0 0 Z " fill="#1C1E20" transform="translate(37,121)"/>
<path d="M0 0 C5.29882271 5.00714439 11.9635157 12.31842997 13.58203125 19.62890625 C13.5625 21.8125 13.5625 21.8125 13 25 C12.34 25 11.68 25 11 25 C9.02 20.05 7.04 15.1 5 10 C3.35 10.33 1.7 10.66 0 11 C0 10.34 0 9.68 0 9 C-1.32 8.67 -2.64 8.34 -4 8 C-2.68 8 -1.36 8 0 8 C0 5.36 0 2.72 0 0 Z " fill="#393A3B" transform="translate(26,71)"/>
<path d="M0 0 C3.34486621 0.39819836 5.82113699 0.90460639 8.8125 2.5 C12.85864481 4.40406815 16.57991354 4.71514998 21 5 C21 5.33 21 5.66 21 6 C10.15330671 7.39957333 1.09797814 8.02149911 -9 3 C-9.33 2.34 -9.66 1.68 -10 1 C-7.69 1.33 -5.38 1.66 -3 2 C-3 2.66 -3 3.32 -3 4 C-2.01 4 -1.02 4 0 4 C0 2.68 0 1.36 0 0 Z " fill="#A6A6A4" transform="translate(37,153)"/>
<path d="M0 0 C1.69752187 0.25245197 3.38471545 0.57645775 5.0625 0.9375 C5.98160156 1.13214844 6.90070312 1.32679687 7.84765625 1.52734375 C8.91306641 1.76130859 8.91306641 1.76130859 10 2 C10.12375 2.63808594 10.2475 3.27617187 10.375 3.93359375 C10.58125 4.61550781 10.7875 5.29742188 11 6 C12.31647119 6.69937532 13.65022151 7.36729133 15 8 C15.33 8.99 15.66 9.98 16 11 C11.79630663 9.64295184 7.71752123 8.09729977 3.625 6.4375 C-1.35793303 4.4968388 -5.67478911 3.3132477 -11 3 C-11 2.67 -11 2.34 -11 2 C-10.28972656 1.93941406 -9.57945313 1.87882812 -8.84765625 1.81640625 C-7.46900391 1.69072266 -7.46900391 1.69072266 -6.0625 1.5625 C-5.14597656 1.48128906 -4.22945312 1.40007813 -3.28515625 1.31640625 C-1.03840268 1.23955024 -1.03840268 1.23955024 0 0 Z " fill="#9098A0" transform="translate(50,21)"/>
<path d="M0 0 C0.99 0.33 1.98 0.66 3 1 C4.1875 3.5625 4.1875 3.5625 5 6 C5.99 5.67 6.98 5.34 8 5 C8.33 4.34 8.66 3.68 9 3 C9.83617182 4.1437636 10.66886459 5.29007139 11.5 6.4375 C11.9640625 7.07558594 12.428125 7.71367187 12.90625 8.37109375 C14 10 14 10 14 11 C12.02 11 10.04 11 8 11 C8.33 12.65 8.66 14.3 9 16 C0.23684211 7.72368421 0.23684211 7.72368421 -0.25 2.125 C-0.1675 1.42375 -0.085 0.7225 0 0 Z " fill="#989999" transform="translate(4,125)"/>
<path d="M0 0 C3.3255324 3.22704102 6.2837777 6.53064164 9.125 10.1875 C13.9085713 16.12461378 19.23783656 21.03484608 25 26 C24.01 26 23.02 26 22 26 C21 25 20 24 19 23 C18.39027344 22.87882812 17.78054687 22.75765625 17.15234375 22.6328125 C11.06246309 20.84232127 6.02016663 13.22721147 3 8 C1.83262503 5.35804611 0.91344222 2.74032666 0 0 Z " fill="#7D8D95" transform="translate(78,53)"/>
<path d="M0 0 C6.6387405 3.39226775 12.45525109 7.42590003 18 12.4375 C13.70464684 12.4375 11.1416464 10.01109957 7.75 7.625 C0.39695149 2.46018336 -5.7115677 -0.84177291 -14.9375 -1.25 C-15.62134766 -1.28416016 -16.30519531 -1.31832031 -17.00976562 -1.35351562 C-18.672644 -1.43491527 -20.3362889 -1.50040525 -22 -1.5625 C-18.28674513 -8.98900974 -5.30915826 -2.6306416 0 0 Z " fill="#9BF7FD" transform="translate(96,8.5625)"/>
<path d="M0 0 C0.125 2.375 0.125 2.375 0 5 C-2 7 -2 7 -4.86328125 7.265625 C-6.57064453 7.25789062 -6.57064453 7.25789062 -8.3125 7.25 C-9.44300781 7.25515625 -10.57351562 7.2603125 -11.73828125 7.265625 C-14.94375294 7.0045806 -17.160936 6.48712876 -20 5 C-20.8125 2.875 -20.8125 2.875 -21 1 C-18.525 1.495 -18.525 1.495 -16 2 C-16 2.66 -16 3.32 -16 4 C-10.09055193 3.63381625 -5.11143883 0 0 0 Z " fill="#1F1F20" transform="translate(81,135)"/>
<path d="M0 0 C7.22114047 0.36717663 7.22114047 0.36717663 11 3.4375 C13 6 13 6 13 8 C12.401875 8.103125 11.80375 8.20625 11.1875 8.3125 C8.71756736 9.08876455 7.67748765 10.07088921 6 12 C1.6409923 8.51279384 1.05447817 5.27239085 0 0 Z " fill="#69696A" transform="translate(11,135)"/>
<path d="M0 0 C0.33 0 0.66 0 1 0 C2.03168198 4.29867491 2.38495761 6.28507873 0.25 10.25 C-0.4925 11.1575 -1.235 12.065 -2 13 C-2.474375 13.639375 -2.94875 14.27875 -3.4375 14.9375 C-5 16 -5 16 -7.3125 16.1875 C-11.51684698 14.32976529 -13.51123348 10.75453094 -16 7 C-12.73988358 7.69378511 -11.20961747 8.45893991 -9 11 C-6.0315035 9.62176948 -3.36439249 8.28286171 -1 6 C-0.19053578 2.89802603 -0.19053578 2.89802603 0 0 Z " fill="#AAB5C0" transform="translate(75,80)"/>
<path d="M0 0 C4.43458973 1.3937282 6.87378374 3.60582235 10 7 C8.68 7.33 7.36 7.66 6 8 C6 8.99 6 9.98 6 11 C5.01 11.33 4.02 11.66 3 12 C1.02 9.36 -0.96 6.72 -3 4 C-2.01 2.68 -1.02 1.36 0 0 Z " fill="#343333" transform="translate(50,121)"/>
<path d="M0 0 C2.10388569 -0.05402274 4.20816714 -0.09280256 6.3125 -0.125 C8.07013672 -0.15980469 8.07013672 -0.15980469 9.86328125 -0.1953125 C13 0 13 0 16 2 C16.79155218 5.06803169 16.6667382 7.91439765 16 11 C14.23050094 13.52858852 12.42959818 15.02595148 10 17 C7.525 16.01 7.525 16.01 5 15 C5 14.67 5 14.34 5 14 C6.670625 13.5978125 6.670625 13.5978125 8.375 13.1875 C12.21840951 12.34190981 12.21840951 12.34190981 14 9 C14.16699232 5.87478167 14.16699232 5.87478167 14 3 C10.98509443 1.99503148 8.95818308 1.89664697 5.8125 1.9375 C3.4303125 1.9684375 3.4303125 1.9684375 1 2 C1.66 5.3 2.32 8.6 3 12 C2.34 12 1.68 12 1 12 C-1.09440189 8.59659693 -1.25797575 5.95562822 -1 2 C-0.67 1.34 -0.34 0.68 0 0 Z " fill="#B7C3CD" transform="translate(58,75)"/>
<path d="M0 0 C3.61569144 1.20523048 3.94669545 2.07185564 5.75 5.3125 C6.19859375 6.09238281 6.6471875 6.87226562 7.109375 7.67578125 C8.11611108 10.30300917 7.97226335 11.40927388 7 14 C4.03 13.505 4.03 13.505 1 13 C-0.97387813 8.23947038 -1.0070238 5.03511899 0 0 Z " fill="#BBBEBF" transform="translate(29,96)"/>
<path d="M0 0 C1.32 1.32 2.64 2.64 4 4 C4.33 2.68 4.66 1.36 5 0 C8 3.75 8 3.75 8 6 C7.34 6 6.68 6 6 6 C8.91214197 11.3762621 12.24351901 16.17918273 16 21 C15.01 21 14.02 21 13 21 C7.5191625 15.41652509 2.74448955 8.86489751 -1 2 C-0.67 1.34 -0.34 0.68 0 0 Z " fill="#ADC6D2" transform="translate(79,34)"/>
<path d="M0 0 C4.61032533 3.76353088 8.51855891 7.63987287 12.36328125 12.17578125 C14.36705931 14.40910906 16.62889581 16.17086248 19 18 C19.66 18.99 20.32 19.98 21 21 C20.67 21.99 20.34 22.98 20 24 C19.113125 23.236875 18.22625 22.47375 17.3125 21.6875 C14.68511182 19.49072889 11.99628247 17.67439315 9 16 C9.99 15.67 10.98 15.34 12 15 C7.20497249 9.40032622 7.20497249 9.40032622 2.0625 4.125 C0 2 0 2 0 0 Z " fill="#B3BCC6" transform="translate(54,89)"/>
<path d="M0 0 C4.78064516 3.39677419 4.78064516 3.39677419 5.84375 6.3203125 C7.32601174 9.75555423 9.41085225 11.63187085 12.125 14.1875 C13.78481059 15.75562133 15.4192709 17.35219199 17 19 C17 19.66 17 20.32 17 21 C13.3491207 20.43263362 11.79257218 19.10048851 9.328125 16.40234375 C8.66425781 15.68369141 8.00039063 14.96503906 7.31640625 14.22460938 C6.63449219 13.46986328 5.95257813 12.71511719 5.25 11.9375 C4.55261719 11.17888672 3.85523438 10.42027344 3.13671875 9.63867188 C1.41694923 7.76577219 -0.29481089 5.88616736 -2 4 C-1.01 4 -0.02 4 1 4 C0.67 2.68 0.34 1.36 0 0 Z " fill="#D6DDE3" transform="translate(49,83)"/>
<path d="M0 0 C0.66 0.33 1.32 0.66 2 1 C0 3.66666667 -2 6.33333333 -4 9 C-4.50917969 9.6909375 -5.01835937 10.381875 -5.54296875 11.09375 C-7.49993947 13.6540763 -9.60529853 15.84476868 -12 18 C-12.99 18 -13.98 18 -15 18 C-14.41889329 14.57245533 -13.31446376 12.95461339 -10.83984375 10.546875 C-10.21142578 9.928125 -9.58300781 9.309375 -8.93554688 8.671875 C-8.27619141 8.03765625 -7.61683594 7.4034375 -6.9375 6.75 C-6.27427734 6.1003125 -5.61105469 5.450625 -4.92773438 4.78125 C-3.29170683 3.1805324 -1.64909088 1.58723807 0 0 Z " fill="#4D4D4D" transform="translate(20,80)"/>
<path d="M0 0 C2.39456443 2.39456443 2.75546876 3.65807308 3 7 C2.52304687 7.44085938 2.04609375 7.88171875 1.5546875 8.3359375 C-0.53725932 10.57505646 -0.49149973 12.16909577 -0.6875 15.1875 C-0.75324219 16.08855469 -0.81898437 16.98960938 -0.88671875 17.91796875 C-0.92410156 18.60503906 -0.96148438 19.29210937 -1 20 C-3.84772511 17.15227489 -4.18525013 14.56527232 -4.3125 10.6875 C-4.28917819 5.92985126 -2.98044903 3.63242225 0 0 Z " fill="#71777E" transform="translate(27,81)"/>
<path d="M0 0 C1.32 0.33 2.64 0.66 4 1 C3.34 1 2.68 1 2 1 C2.44876616 2.64846769 2.90930488 4.29373455 3.375 5.9375 C3.63023438 6.85402344 3.88546875 7.77054688 4.1484375 8.71484375 C4.76660104 11.16745087 4.76660104 11.16745087 7 12 C8 13.890625 8 13.890625 9 16.25 C9.34546875 17.05824219 9.6909375 17.86648437 10.046875 18.69921875 C11.05183279 21.12512096 12.05206352 23.5511641 13 26 C6.50405661 20.48829046 0.99821467 12.32060395 0.0625 3.75 C0.041875 2.5125 0.02125 1.275 0 0 Z " fill="#4D6F7B" transform="translate(69,35)"/>
<path d="M0 0 C0.99 0.845625 1.98 1.69125 3 2.5625 C3.96679688 3.38621094 3.96679688 3.38621094 4.953125 4.2265625 C6.27183457 5.36910858 7.57541335 6.52947699 8.859375 7.7109375 C13.52658704 11.97314354 18.43978523 15.29237248 23.875 18.51953125 C24.57625 19.00808594 25.2775 19.49664062 26 20 C26 20.66 26 21.32 26 22 C23.35474197 21.04476793 21.18876915 20.14300693 18.9375 18.4375 C17.13147957 16.88681113 17.13147957 16.88681113 15.08105469 16.60327148 C12.5339164 15.86488825 11.55194478 14.84954989 9.765625 12.91015625 C8.90517578 11.98106445 8.90517578 11.98106445 8.02734375 11.03320312 C7.44082031 10.38287109 6.85429688 9.73253906 6.25 9.0625 C5.64800781 8.41603516 5.04601563 7.76957031 4.42578125 7.10351562 C0 2.27128508 0 2.27128508 0 0 Z " fill="#0E0E0F" transform="translate(35,117)"/>
<path d="M0 0 C3.25059486 1.57604599 4.87908728 4.14943339 7.0625 7 C6.0725 7.33 5.0825 7.66 4.0625 8 C3.7325 8.66 3.4025 9.32 3.0625 10 C-1.2117558 8.4169423 -3.20281794 5.49431596 -5.9375 2 C-3.87474414 0.74761251 -2.43703105 0 0 0 Z " fill="#979797" transform="translate(53.9375,97)"/>
<path d="M0 0 C0.61746094 0.2165625 1.23492187 0.433125 1.87109375 0.65625 C7.83640307 2.61744758 12.72880367 3.30344498 19 3 C18.67 4.32 18.34 5.64 18 7 C16.06280622 7.05406122 14.12518079 7.09282025 12.1875 7.125 C11.10855469 7.14820312 10.02960938 7.17140625 8.91796875 7.1953125 C6 7 6 7 3 5 C1.94895617 3.36504293 0.94011682 1.70116376 0 0 Z " fill="#80ADB9" transform="translate(135,84)"/>
<path d="M0 0 C3.12203856 0.96634527 5.90094703 1.9437199 8.75 3.5625 C13.10864357 5.49036158 17.28067279 5.72952473 22 6 C20 8 20 8 16.875 8.3125 C12.34375158 7.94707674 9.17304803 6.75707285 5 5 C4.34 6.32 3.68 7.64 3 9 C2.01 9 1.02 9 0 9 C0.185625 7.88625 0.37125 6.7725 0.5625 5.625 C1.31680657 2.17431139 1.31680657 2.17431139 0 0 Z " fill="#A3C2CA" transform="translate(109,88)"/>
<path d="M0 0 C2.55016947 2.55016947 2.36311104 3.89562372 2.75 7.4375 C3.61542881 13.29145747 5.57144672 17.52046253 8.66015625 22.52734375 C10.03172645 25.05855056 10.58936573 27.16611656 11 30 C5.3890537 25.19061746 2.07983127 19.07013324 0.1875 11.9375 C-0.06679495 7.95354574 -0.07980533 3.99026646 0 0 Z " fill="#446F7F" transform="translate(73,9)"/>
<path d="M0 0 C0.33 0.66 0.66 1.32 1 2 C0.30519531 1.87625 -0.38960937 1.7525 -1.10546875 1.625 C-5.48052325 2.19180868 -7.40155333 4.85914868 -10.3125 8 C-10.86228516 8.57234375 -11.41207031 9.1446875 -11.97851562 9.734375 C-13.3305941 11.14523949 -14.66688335 12.57120512 -16 14 C-15.01 15.485 -15.01 15.485 -14 17 C-18.75 16.25 -18.75 16.25 -21 14 C-20 12 -20 12 -17.71484375 10.66796875 C-13.91708702 8.33467073 -11.32750098 5.17056013 -8.37890625 1.86328125 C-5.4028705 -0.46770242 -3.68843587 -0.36619004 0 0 Z " fill="#2E3134" transform="translate(58,137)"/>
<path d="M0 0 C0.66 1.32 1.32 2.64 2 4 C-4.435 4.495 -4.435 4.495 -11 5 C-11.2165625 7.165625 -11.2165625 7.165625 -11.4375 9.375 C-11.875 13.75 -11.875 13.75 -13 16 C-15.09491746 12.59575912 -15.49573145 9.96585158 -15 6 C-13.6875 3.75 -13.6875 3.75 -11 2 C-7.3629869 1.07897222 -3.71797204 0.48718254 0 0 Z " fill="#93A1AD" transform="translate(70,69)"/>
<path d="M0 0 C3.33421737 0.68076828 6.03507896 1.96622557 9.0625 3.5 C14.7051868 6.13883062 19.81544914 6.86841381 26 7 C22.58568951 9.276207 21.94463217 9.15040135 18.0625 8.625 C14.95769713 8.22226539 12.15242514 8 9 8 C8.67 6.68 8.34 5.36 8 4 C7.34 4 6.68 4 6 4 C6 4.99 6 5.98 6 7 C3 6 3 6 1.3125 2.9375 C0.879375 1.968125 0.44625 0.99875 0 0 Z " fill="#D7ECF1" transform="translate(126,84)"/>
<path d="M0 0 C7.57774471 2.70824327 13.55080679 8.19924594 19 14 C18.67 14.66 18.34 15.32 18 16 C15.36 13.36 12.72 10.72 10 8 C9.67 8.33 9.34 8.66 9 9 C9 9.99 9 10.98 9 12 C7.49707257 10.18992669 5.99772829 8.37687764 4.5 6.5625 C3.6646875 5.55316406 2.829375 4.54382812 1.96875 3.50390625 C0 1 0 1 0 0 Z " fill="#363D41" transform="translate(78,52)"/>
<path d="M0 0 C3 2 3 2 3.43359375 4.1015625 C3.44351564 10.51110601 2.27067626 14.48073381 -1 20 C-1.93423645 16.98968256 -2.04449911 16.13349732 -1 13 C-0.77548542 10.77425665 -0.59217122 8.54418481 -0.4375 6.3125 C-0.35371094 5.13300781 -0.26992187 3.95351562 -0.18359375 2.73828125 C-0.12300781 1.83464844 -0.06242188 0.93101563 0 0 Z " fill="#B8B9BB" transform="translate(141,118)"/>
<path d="M0 0 C4.29325236 1.75510317 5.32046837 3.91523079 7.18359375 7.9921875 C9.32625986 13.26171085 9.10987406 18.39642309 9 24 C8.01 24 7.02 24 6 24 C6.2475 23.236875 6.495 22.47375 6.75 21.6875 C7.17527808 15.41464828 4.57796529 9.61115685 1.359375 4.28515625 C0 2 0 2 0 0 Z " fill="#B1F1F9" transform="translate(144,62)"/>
<path d="M0 0 C5.20752746 3.04830876 9.70718615 6.87667621 13 12 C12.67 12.99 12.34 13.98 12 15 C10.17428377 13.45099858 8.36547858 11.88759281 6.5625 10.3125 C6.04623047 9.87744141 5.52996094 9.44238281 4.99804688 8.99414062 C1.81716516 6.18748029 0.30082299 4.28094249 0 0 Z " fill="#94DBEB" transform="translate(106,42)"/>
<path d="M0 0 C1.65 1.65 3.3 3.3 5 5 C3.515 7.475 3.515 7.475 2 10 C3.32 11.65 4.64 13.3 6 15 C3.12470182 13.71107323 0.94991702 12.50703617 -1 10 C-2.36624071 6.00637332 -1.82177738 3.75071814 0 0 Z " fill="#464647" transform="translate(46,116)"/>
<path d="M0 0 C0.66 0 1.32 0 2 0 C3.19140625 1.6171875 3.19140625 1.6171875 4.5625 3.875 C8.135663 9.45197153 12.47562371 14.18405279 17 19 C16.34 19.66 15.68 20.32 15 21 C0 4.51948052 0 4.51948052 0 0 Z " fill="#7B9198" transform="translate(85,40)"/>
<path d="M0 0 C5.75 1.875 5.75 1.875 8 3 C8 3.66 8 4.32 8 5 C9.98 4.34 11.96 3.68 14 3 C12.79618552 5.49361571 11.54571278 7.68143083 10 10 C7.5 8.625 7.5 8.625 5 7 C5 6.34 5 5.68 5 5 C2.525 4.01 2.525 4.01 0 3 C0 2.01 0 1.02 0 0 Z " fill="#AAB3BE" transform="translate(60,24)"/>
<path d="M0 0 C1.75 0.125 1.75 0.125 4 1 C5.38938077 2.96147874 6.7260411 4.96166576 8 7 C8.66 7.33 9.32 7.66 10 8 C10 7.01 10 6.02 10 5 C10.66 5 11.32 5 12 5 C12 6.65 12 8.3 12 10 C9.07720385 9.90257346 6.76645342 9.82360064 4 9 C1.26283959 5.85226553 0 4.19956717 0 0 Z " fill="#A7CFDD" transform="translate(122,83)"/>
<path d="M0 0 C3.31682698 3.03190132 5.42646322 6.15452824 7.625 10.0625 C9.35080781 13.1109247 11.05636699 16.08455049 13 19 C12.01 19 11.02 19 10 19 C8.61328125 17.5390625 8.61328125 17.5390625 7.3125 15.625 C6.87550781 14.99851562 6.43851563 14.37203125 5.98828125 13.7265625 C5 12 5 12 5 10 C4.34 10 3.68 10 3 10 C0 3.375 0 3.375 0 0 Z " fill="#18191A" transform="translate(22,97)"/>
<path d="M0 0 C1.42366111 0.50139889 2.84062729 1.02224046 4.25 1.5625 C4.95640625 1.83191406 5.6628125 2.10132813 6.390625 2.37890625 C6.92171875 2.58386719 7.4528125 2.78882813 8 3 C5.24921116 3.91692961 3.64051087 4.10886083 0.8125 4.0625 C-1.0746875 4.0315625 -1.0746875 4.0315625 -3 4 C-3.33 6.64 -3.66 9.28 -4 12 C-4.33 12 -4.66 12 -5 12 C-5.33 8.04 -5.66 4.08 -6 0 C-3.44873865 -1.27563067 -2.67674919 -0.82549382 0 0 Z " fill="#9CE1EE" transform="translate(80,7)"/>
<path d="M0 0 C1.98498051 0.92512666 3.96286018 1.86550237 5.9375 2.8125 C7.03964844 3.33457031 8.14179688 3.85664062 9.27734375 4.39453125 C12 6 12 6 13 9 C14.65 9.33 16.3 9.66 18 10 C15.71062713 10.78347427 14.41234923 11.12854612 12.0703125 10.3984375 C7.55230278 8.02149263 3.71169783 5.52611294 0 2 C0 1.34 0 0.68 0 0 Z " fill="#69868F" transform="translate(123,78)"/>
<path d="M0 0 C3.2910841 3.60957611 4.54663921 6.12637153 5 11 C2 10 2 10 0 8 C-0.66 8 -1.32 8 -2 8 C-2 7.01 -2 6.02 -2 5 C-3.32 4.67 -4.64 4.34 -6 4 C-3 2 -3 2 0 2 C0 1.34 0 0.68 0 0 Z " fill="#C9E1E9" transform="translate(74,24)"/>
<path d="M0 0 C0.33 0 0.66 0 1 0 C1.77162899 8.83086516 1.77162899 8.83086516 -1.0625 13.125 C-4.64129177 15.40933517 -6.83047551 15.40877691 -11 15 C-11.33 14.01 -11.66 13.02 -12 12 C-9.03 12.495 -9.03 12.495 -6 13 C-2.10014426 8.84015388 -1.10830253 5.44915409 0 0 Z " fill="#76797C" transform="translate(91,91)"/>
<path d="M0 0 C0.66 0.33 1.32 0.66 2 1 C1.67 1.99 1.34 2.98 1 4 C0.34 4 -0.32 4 -1 4 C-0.67 7.63 -0.34 11.26 0 15 C-2.5625 12.9375 -2.5625 12.9375 -5 10 C-5.0625 6.375 -5.0625 6.375 -4 3 C-1.9375 1.0625 -1.9375 1.0625 0 0 Z " fill="#6D7073" transform="translate(55,69)"/>
<path d="M0 0 C5.18659613 0.41342433 7.35978999 1.7809862 10.875 5.5625 C11.65617187 6.38878906 12.43734375 7.21507812 13.2421875 8.06640625 C13.82226562 8.70449219 14.40234375 9.34257813 15 10 C14.67 10.66 14.34 11.32 14 12 C12.22383426 10.75758865 10.45425957 9.50575129 8.6875 8.25 C7.70136719 7.55390625 6.71523437 6.8578125 5.69921875 6.140625 C3.2890307 4.22921682 1.68139018 2.54790867 0 0 Z " fill="#67AFBE" transform="translate(89,56)"/>
<path d="M0 0 C0 0.99 0 1.98 0 3 C-0.48082031 3.44988281 -0.96164063 3.89976563 -1.45703125 4.36328125 C-3.54771639 6.58099536 -3.4926378 8.18662216 -3.6875 11.1875 C-3.75324219 12.08855469 -3.81898437 12.98960938 -3.88671875 13.91796875 C-3.92410156 14.60503906 -3.96148438 15.29210937 -4 16 C-6.03876191 12.94185713 -6.41616481 11.55116328 -6.8125 8 C-6.92207031 7.13375 -7.03164063 6.2675 -7.14453125 5.375 C-7 3 -7 3 -5.76171875 1.1875 C-4 0 -4 0 0 0 Z " fill="#090A0A" transform="translate(26,80)"/>
<path d="M0 0 C4.09176955 0.30309404 7.46165096 0.87699058 11 3 C8.98177083 2.90234375 6.96354167 2.8046875 4.9453125 2.70703125 C3.98238281 2.85205078 3.98238281 2.85205078 3 3 C2.01 4.485 2.01 4.485 1 6 C-2 6.3125 -2 6.3125 -5 6 C-5.66 5.34 -6.32 4.68 -7 4 C-5.824375 3.566875 -5.824375 3.566875 -4.625 3.125 C-1.90328368 2.15087746 -1.90328368 2.15087746 0 0 Z " fill="#AFAFAE" transform="translate(106,137)"/>
<path d="M0 0 C1.09765702 1.09765702 2.1945733 2.19605927 3.2890625 3.296875 C4.62811716 4.62981525 5.97968059 5.95019188 7.3359375 7.265625 C8.15320313 8.06484375 8.97046875 8.8640625 9.8125 9.6875 C10.60269531 10.45449219 11.39289063 11.22148438 12.20703125 12.01171875 C14 14 14 14 14 16 C7.88415353 13.27139158 2.9178467 8.00733143 0 2 C0 1.34 0 0.68 0 0 Z " fill="#ACBCC6" transform="translate(73,67)"/>
<path d="M0 0 C4.00748653 0.58487641 6.85736768 1.84394575 10.3125 3.9375 C11.19550781 4.46214844 12.07851562 4.98679687 12.98828125 5.52734375 C13.65214844 6.01332031 14.31601563 6.49929687 15 7 C15 7.66 15 8.32 15 9 C12.07835721 8.53253715 9.94122961 7.43867686 7.4375 5.9375 C4.22207782 3.75449347 4.22207782 3.75449347 1 4 C0.67 2.68 0.34 1.36 0 0 Z " fill="#8ADDEA" transform="translate(81,30)"/>
<path d="M0 0 C6 6 6 6 6.09765625 7.84765625 C6.06510417 9.8984375 6.03255208 11.94921875 6 14 C5.34 14 4.68 14 4 14 C3.32471777 12.42032193 2.66010306 10.83608097 2 9.25 C1.62875 8.36828125 1.2575 7.4865625 0.875 6.578125 C0 4 0 4 0 0 Z " fill="#252729" transform="translate(33,82)"/>
<path d="M0 0 C4.85670173 0.41730344 7.45136075 2.8000858 10.8125 6.0625 C11.56563477 6.77116211 11.56563477 6.77116211 12.33398438 7.49414062 C13.56422789 8.65408452 14.78327065 9.82588815 16 11 C15.01 11.495 15.01 11.495 14 12 C10.27818419 10.11094391 7.28003101 7.6546879 4.1875 4.875 C3.39730469 4.17117187 2.60710937 3.46734375 1.79296875 2.7421875 C1.20128906 2.16726562 0.60960938 1.59234375 0 1 C0 0.67 0 0.34 0 0 Z " fill="#98F2FA" transform="translate(114,28)"/>
<path d="M0 0 C2.475 0.99 2.475 0.99 5 2 C3.73577236 4.52845528 2.47154472 4.76422764 0 6 C-0.33 6.66 -0.66 7.32 -1 8 C-2.32 7.67 -3.64 7.34 -5 7 C-5 6.01 -5 5.02 -5 4 C-4.34 4 -3.68 4 -3 4 C-3 3.34 -3 2.68 -3 2 C-2.01 2 -1.02 2 0 2 C0 1.34 0 0.68 0 0 Z " fill="#666566" transform="translate(94,128)"/>
<path d="M0 0 C0.66 0 1.32 0 2 0 C3.65 3.3 5.3 6.6 7 10 C5.68 10.33 4.36 10.66 3 11 C0.29417212 7.16674383 -0.32613618 4.67461851 0 0 Z " fill="#C3C5C6" transform="translate(6,120)"/>
<path d="M0 0 C2.46800047 1.15173355 4.04783565 2.04783565 6 4 C7.65438613 4.69658363 9.32254318 5.36096883 11 6 C12.34050052 6.65213539 13.67661368 7.31379969 15 8 C15 8.99 15 9.98 15 11 C10.30761228 10.52653385 8.08375277 8.67989889 4.6875 5.5 C3.80449219 4.6853125 2.92148438 3.870625 2.01171875 3.03125 C0 1 0 1 0 0 Z " fill="#6E7D83" transform="translate(95,75)"/>
<path d="M0 0 C4.87072783 4.56630734 8.89156398 9.74976539 13 15 C12.67 15.66 12.34 16.32 12 17 C10.51152063 15.76110404 9.03449895 14.5084328 7.5625 13.25 C6.73878906 12.55390625 5.91507812 11.8578125 5.06640625 11.140625 C2.93367501 8.93129283 2.43608366 7.95567817 2 5 C1.3530635 3.3255761 0.69040574 1.65697379 0 0 Z " fill="#83969D" transform="translate(78,53)"/>
<path d="M0 0 C0.99 0.495 0.99 0.495 2 1 C2 1.66 2 2.32 2 3 C2.99 3.33 3.98 3.66 5 4 C7.87761023 9.60376729 7.17843628 15.87368781 7 22 C6.67 22 6.34 22 6 22 C5.90203125 21.2265625 5.8040625 20.453125 5.703125 19.65625 C4.74040769 12.95042601 3.28292292 7.90926126 0 2 C0 1.34 0 0.68 0 0 Z " fill="#73DFF7" transform="translate(147,62)"/>
<path d="M0 0 C2.97 0.495 2.97 0.495 6 1 C5.01 1.495 5.01 1.495 4 2 C3.67 2.99 3.34 3.98 3 5 C-2.26053037 5.31563182 -5.44573816 4.66590937 -10 2 C-7.3333581 0.66667905 -5.83319697 1.32897967 -3 2 C-3 2.66 -3 3.32 -3 4 C-2.01 4 -1.02 4 0 4 C0 2.68 0 1.36 0 0 Z " fill="#818180" transform="translate(37,153)"/>
<path d="M0 0 C2.1875 0.3125 2.1875 0.3125 4 1 C2.125 4.875 2.125 4.875 1 6 C-4.41176471 6.47058824 -4.41176471 6.47058824 -6.875 4.5 C-7.24625 4.005 -7.6175 3.51 -8 3 C-6.8553125 3.0928125 -6.8553125 3.0928125 -5.6875 3.1875 C-2.95010308 3.29186282 -2.95010308 3.29186282 -1.4375 1.4375 C-0.963125 0.963125 -0.48875 0.48875 0 0 Z " fill="#9F9F9F" transform="translate(102,135)"/>
<path d="M0 0 C0.66 0 1.32 0 2 0 C3.05082025 3.76543923 3.3391456 5.3759721 1.4375 8.875 C-1 11 -1 11 -4.25 11.3125 C-5.1575 11.209375 -6.065 11.10625 -7 11 C-7.33 10.34 -7.66 9.68 -8 9 C-5.525 9.495 -5.525 9.495 -3 10 C-1.11608215 6.73454239 -0.50712033 3.71888239 0 0 Z " fill="#C5CFDA" transform="translate(70,78)"/>
<path d="M0 0 C2.0625 0.4375 2.0625 0.4375 4 1 C4.33 2.65 4.66 4.3 5 6 C3.68 5.01 2.36 4.02 1 3 C1.2165625 3.61488281 1.433125 4.22976562 1.65625 4.86328125 C1.9346875 5.67152344 2.213125 6.47976562 2.5 7.3125 C2.7784375 8.11300781 3.056875 8.91351563 3.34375 9.73828125 C4 12 4 12 4 15 C0.33298669 10.26836992 -0.69508644 6.99663333 -1 1 C-0.67 0.67 -0.34 0.34 0 0 Z " fill="#222628" transform="translate(69,50)"/>
<path d="M0 0 C5.0500077 1.39681064 8.69594418 3.59943922 12.875 6.625 C13.46796875 7.04523437 14.0609375 7.46546875 14.671875 7.8984375 C16.11931674 8.92565422 17.56033919 9.9619063 19 11 C18.67 11.99 18.34 12.98 18 14 C17.20335938 13.39671875 16.40671875 12.7934375 15.5859375 12.171875 C14.51569089 11.36449598 13.44537465 10.55720925 12.375 9.75 C11.33085938 8.96109375 10.28671875 8.1721875 9.2109375 7.359375 C7.02721915 5.75479364 4.8674012 4.23888638 2.6015625 2.765625 C1.74304688 2.18296875 0.88453125 1.6003125 0 1 C0 0.67 0 0.34 0 0 Z " fill="#5DB1C4" transform="translate(95,11)"/>
<path d="M0 0 C4.455 0.99 4.455 0.99 9 2 C9.33 3.32 9.66 4.64 10 6 C7.03 6 4.06 6 1 6 C0.67 5.34 0.34 4.68 0 4 C0.66 3.67 1.32 3.34 2 3 C1.34 2.01 0.68 1.02 0 0 Z " fill="#75A0AB" transform="translate(100,92)"/>
<path d="M0 0 C6.75 0.75 6.75 0.75 9 3 C8.34 3 7.68 3 7 3 C7 3.66 7 4.32 7 5 C4.69 5 2.38 5 0 5 C0 3.35 0 1.7 0 0 Z " fill="#A6A5A4" transform="translate(66,132)"/>
<path d="M0 0 C0.66 0.33 1.32 0.66 2 1 C1.70703125 3.01822917 1.4140625 5.03645833 1.12109375 7.0546875 C0.8315703 9.08140667 0.8315703 9.08140667 2 11 C-1.7952131 9.50902342 -3.61042731 7.24299151 -6 4 C-5.01 4 -4.02 4 -3 4 C-2.34 3.67 -1.68 3.34 -1 3 C-0.67 2.01 -0.34 1.02 0 0 Z " fill="#7C7D7D" transform="translate(41,112)"/>
<path d="M0 0 C2 3 2 3 3 6 C5.15551115 7.14089075 5.15551115 7.14089075 7.75 8 C11.42995427 9.37075661 14.71503884 10.81002589 18 13 C17.01 13.495 17.01 13.495 16 14 C13.59130825 13.18824727 11.32728948 12.31491686 9 11.3125 C8.35804687 11.05533203 7.71609375 10.79816406 7.0546875 10.53320312 C4.33234063 9.37421236 2.33608976 8.45755698 0.5625 6.04296875 C0 4 0 4 0 0 Z " fill="#9AEBF1" transform="translate(76,19)"/>
<path d="M0 0 C0.66 0.33 1.32 0.66 2 1 C1.36191406 1.62648437 0.72382812 2.25296875 0.06640625 2.8984375 C-0.75988281 3.71570313 -1.58617187 4.53296875 -2.4375 5.375 C-3.26121094 6.18710938 -4.08492187 6.99921875 -4.93359375 7.8359375 C-7.03434672 9.82348515 -7.03434672 9.82348515 -8 12 C-8.66 12 -9.32 12 -10 12 C-10 12.66 -10 13.32 -10 14 C-11.32 13.34 -12.64 12.68 -14 12 C-13.49210937 11.63648438 -12.98421875 11.27296875 -12.4609375 10.8984375 C-7.89812427 7.56604581 -3.89644336 4.09126553 0 0 Z " fill="#131517" transform="translate(48,137)"/>
<path d="M0 0 C0 2.64 0 5.28 0 8 C0.66 8.33 1.32 8.66 2 9 C-2.24822374 8.52797514 -4.19989709 6.03344482 -7 3 C-1.125 0 -1.125 0 0 0 Z " fill="#0F1010" transform="translate(91,109)"/>
<path d="M0 0 C5.23435005 4.27293882 9.67106815 8.81580806 14 14 C13.67 14.66 13.34 15.32 13 16 C8.80936716 12.65897492 5.58160735 9.77597359 3 5 C2.443125 4.443125 1.88625 3.88625 1.3125 3.3125 C0.879375 2.879375 0.44625 2.44625 0 2 C0 1.34 0 0.68 0 0 Z " fill="#CBCFD4" transform="translate(103,56)"/>
<path d="M0 0 C3.72006826 4.118647 6.30824355 8.71715318 8 14 C7.67 14.66 7.34 15.32 7 16 C6.34 16 5.68 16 5 16 C4.1605118 13.89828133 3.32860344 11.79353375 2.5 9.6875 C2.0359375 8.51574219 1.571875 7.34398437 1.09375 6.13671875 C0 3 0 3 0 0 Z " fill="#D5DDE8" transform="translate(25,43)"/>
<path d="M0 0 C2.39456443 2.39456443 2.75546876 3.65807308 3 7 C2.52304687 7.44085938 2.04609375 7.88171875 1.5546875 8.3359375 C-0.53725932 10.57505646 -0.49149973 12.16909577 -0.6875 15.1875 C-0.75324219 16.08855469 -0.81898437 16.98960938 -0.88671875 17.91796875 C-0.92410156 18.60503906 -0.96148438 19.29210937 -1 20 C-1.33 20 -1.66 20 -2 20 C-2 15.71 -2 11.42 -2 7 C-1.34 6.67 -0.68 6.34 0 6 C0 4.02 0 2.04 0 0 Z " fill="#84898D" transform="translate(27,81)"/>
<path d="M0 0 C4.04420651 1.77945087 7.46078487 4.39529673 11 7 C9 8 9 8 6 8 C3.375 6.8125 3.375 6.8125 1 5 C0.1875 2.3125 0.1875 2.3125 0 0 Z " fill="#8CA1A8" transform="translate(117,72)"/>
<path d="M0 0 C2.475 0.495 2.475 0.495 5 1 C5 1.66 5 2.32 5 3 C7.64 3 10.28 3 13 3 C11.9375 4.5625 11.9375 4.5625 10 6 C6.69564394 5.76811536 3.97858719 5.48929359 1 4 C0.375 1.9375 0.375 1.9375 0 0 Z " fill="#19191A" transform="translate(60,136)"/>
<path d="M0 0 C0.99 0.33 1.98 0.66 3 1 C2.67 3.31 2.34 5.62 2 8 C1.34 8 0.68 8 0 8 C-0.33 8.99 -0.66 9.98 -1 11 C-3.125 6.375 -3.125 6.375 -2 3 C-2 3.66 -2 4.32 -2 5 C-1.34 5 -0.68 5 0 5 C0 3.35 0 1.7 0 0 Z " fill="#AFB0B1" transform="translate(4,117)"/>
<path d="M0 0 C6.19887485 -0.37952295 10.4477112 0.1647887 16 3 C15.34 3.66 14.68 4.32 14 5 C9.33333333 3.66666667 4.66666667 2.33333333 0 1 C0 0.67 0 0.34 0 0 Z " fill="#62DCEB" transform="translate(80,7)"/>
<path d="M0 0 C0.99 0.66 1.98 1.32 3 2 C2.814375 3.11375 2.62875 4.2275 2.4375 5.375 C1.68319343 8.82568861 1.68319343 8.82568861 3 11 C1.0625 10.375 1.0625 10.375 -1 9 C-1.875 6.0625 -1.875 6.0625 -2 3 C-1.34 2.01 -0.68 1.02 0 0 Z " fill="#616161" transform="translate(43,115)"/>
<path d="M0 0 C4.82034262 0.41317222 6.90992611 2.38019915 10 6 C10 6.66 10 7.32 10 8 C6.40094092 7.44449305 5.00090201 6.25112752 2.75 3.4375 C2.22921875 2.79683594 1.7084375 2.15617187 1.171875 1.49609375 C0.78515625 1.00238281 0.3984375 0.50867188 0 0 Z " fill="#CAD3D9" transform="translate(56,96)"/>
<path d="M0 0 C2.69095476 2.69095476 2.67211872 4.76853804 3.25 8.5 C3.44078125 9.6653125 3.6315625 10.830625 3.828125 12.03125 C3.88484375 13.0109375 3.9415625 13.990625 4 15 C3.34 15.66 2.68 16.32 2 17 C0.30167391 11.16200408 -0.25287193 6.06892629 0 0 Z " fill="#5EAABF" transform="translate(73,9)"/>
<path d="M0 0 C0.78375 0.2475 1.5675 0.495 2.375 0.75 C2.705 1.41 3.035 2.07 3.375 2.75 C2.385 3.08 1.395 3.41 0.375 3.75 C0.045 4.41 -0.285 5.07 -0.625 5.75 C-4.5 4 -4.5 4 -5.625 1.75 C-2.625 -0.25 -2.625 -0.25 0 0 Z " fill="#848585" transform="translate(57.625,101.25)"/>
<path d="M0 0 C7.50769231 1.47692308 7.50769231 1.47692308 10 4.125 C10.495 5.053125 10.495 5.053125 11 6 C3.54062751 5.38857603 3.54062751 5.38857603 1 3.5625 C0 2 0 2 0 0 Z " fill="#78828B" transform="translate(67,97)"/>
<path d="M0 0 C0.66 0.66 1.32 1.32 2 2 C-0.1875 4.5625 -0.1875 4.5625 -3 7 C-5.6875 7 -5.6875 7 -8 6 C-8.66 5.01 -9.32 4.02 -10 3 C-7.36 3.33 -4.72 3.66 -2 4 C-1.34 2.68 -0.68 1.36 0 0 Z " fill="#9BA7B3" transform="translate(73,89)"/>
<path d="M0 0 C5.01113235 1.4317521 6.94469549 3.98445693 10 8 C5.17965738 7.58682778 3.09007389 5.61980085 0 2 C0 1.34 0 0.68 0 0 Z " fill="#667B82" transform="translate(109,67)"/>
<path d="M0 0 C4.06498881 1.37184347 6.67396561 3.22068459 9.8125 6.125 C10.99779297 7.21167969 10.99779297 7.21167969 12.20703125 8.3203125 C12.79871094 8.87460937 13.39039062 9.42890625 14 10 C13.34 10.66 12.68 11.32 12 12 C8 8 4 4 0 0 Z " fill="#65CDD9" transform="translate(84,54)"/>
<path d="M0 0 C1.98 0 3.96 0 6 0 C5.07347299 1.17539996 4.13336613 2.34010577 3.1875 3.5 C2.66542969 4.1496875 2.14335938 4.799375 1.60546875 5.46875 C0 7 0 7 -3 7 C-2.01 4.69 -1.02 2.38 0 0 Z " fill="#626568" transform="translate(72,142)"/>
<path d="M0 0 C2.0625 2.1875 2.0625 2.1875 4 5 C3.75 7.8125 3.75 7.8125 3 10 C2.01 10.33 1.02 10.66 0 11 C-0.6875 9.1875 -0.6875 9.1875 -1 7 C0.4375 5.25 0.4375 5.25 2 4 C1.34 4 0.68 4 0 4 C0 2.68 0 1.36 0 0 Z " fill="#909191" transform="translate(37,106)"/>
<path d="M0 0 C0.33 0.66 0.66 1.32 1 2 C3.31 2 5.62 2 8 2 C7.67 2.66 7.34 3.32 7 4 C3.37 4 -0.26 4 -4 4 C-4 3.01 -4 2.02 -4 1 C-2.68 0.67 -1.36 0.34 0 0 Z " fill="#6097A5" transform="translate(125,90)"/>
<path d="M0 0 C0.33 0 0.66 0 1 0 C1 2.31 1 4.62 1 7 C-1.97 7.66 -4.94 8.32 -8 9 C-6.8553125 7.88625 -6.8553125 7.88625 -5.6875 6.75 C-3.55897715 4.57197662 -1.80222694 2.43300637 0 0 Z " fill="#18191A" transform="translate(19,84)"/>
<path d="M0 0 C4.29 0 8.58 0 13 0 C11 3 11 3 8.375 3.6875 C7.59125 3.790625 6.8075 3.89375 6 4 C6 3.01 6 2.02 6 1 C4.02 1 2.04 1 0 1 C0 0.67 0 0.34 0 0 Z " fill="#A6A29E" transform="translate(123,141)"/>
<path d="M0 0 C0.33 0.66 0.66 1.32 1 2 C-0.54442235 5.63393495 -1.48567857 6.78822059 -5.1875 8.3125 C-6.5796875 8.6528125 -6.5796875 8.6528125 -8 9 C-8 8.34 -8 7.68 -8 7 C-7.01 7 -6.02 7 -5 7 C-4.9175 6.401875 -4.835 5.80375 -4.75 5.1875 C-3.79544128 2.4033704 -2.42867729 1.56688858 0 0 Z " fill="#4D4F50" transform="translate(91,104)"/>
<path d="M0 0 C2.33333823 2.12121657 3.9148886 4.01594365 5 7 C4.625 9.25 4.625 9.25 4 11 C1.96022723 7.75490696 0.33488128 4.59391114 -1 1 C-0.67 0.67 -0.34 0.34 0 0 Z " fill="#65DCEF" transform="translate(109,76)"/>
<path d="M0 0 C0.99 0.495 0.99 0.495 2 1 C2 1.66 2 2.32 2 3 C2.556875 3.226875 3.11375 3.45375 3.6875 3.6875 C6.63246684 5.35896766 8.68156544 7.55276352 11 10 C10.67 10.66 10.34 11.32 10 12 C8.32448647 10.57282151 6.65980691 9.13291518 5 7.6875 C3.6078125 6.48673828 3.6078125 6.48673828 2.1875 5.26171875 C0 3 0 3 0 0 Z " fill="#70C5DE" transform="translate(121,29)"/>
<path d="M0 0 C3.48191452 1.88211596 6.03178994 3.5009599 8 7 C7.67 7.99 7.34 8.98 7 10 C5.62437146 8.71034824 4.29233607 7.37310707 3 6 C3 5.34 3 4.68 3 4 C2.01 3.34 1.02 2.68 0 2 C0 1.34 0 0.68 0 0 Z " fill="#A4B0BC" transform="translate(67,103)"/>
<path d="M0 0 C1.32 1.32 2.64 2.64 4 4 C3.67 4.66 3.34 5.32 3 6 C2.34 6 1.68 6 1 6 C1.33 7.32 1.66 8.64 2 10 C1.01 10.495 1.01 10.495 0 11 C0 10.34 0 9.68 0 9 C-1.32 8.67 -2.64 8.34 -4 8 C-2.68 8 -1.36 8 0 8 C0 5.36 0 2.72 0 0 Z " fill="#4B4B4B" transform="translate(26,71)"/>
<path d="M0 0 C3.25524265 3.02272532 5.61820737 6.25718301 8 10 C4.4213696 8.34832443 1.25179812 6.21713508 -2 4 C-1.34 2.68 -0.68 1.36 0 0 Z " fill="#3B4345" transform="translate(86,47)"/>
<path d="M0 0 C-0.375 1.9375 -0.375 1.9375 -1 4 C-1.99 4.495 -1.99 4.495 -3 5 C-3 4.01 -3 3.02 -3 2 C-3.99 2.495 -3.99 2.495 -5 3 C-6.54023996 3.06950541 -8.08334988 3.08452357 -9.625 3.0625 C-10.85089844 3.04896484 -10.85089844 3.04896484 -12.1015625 3.03515625 C-13.04128906 3.01775391 -13.04128906 3.01775391 -14 3 C-14 2.67 -14 2.34 -14 2 C-12.22978678 1.663389 -10.45880326 1.33082707 -8.6875 1 C-7.70136719 0.814375 -6.71523437 0.62875 -5.69921875 0.4375 C-3 0 -3 0 0 0 Z " fill="#999A9B" transform="translate(139,136)"/>
<path d="M0 0 C0.99 0.33 1.98 0.66 3 1 C2.01 1.495 2.01 1.495 1 2 C0.91840426 6.16138263 1.01751476 9.9472484 2 14 C-0.21462117 12.23995897 -0.94503183 11.40964372 -1.328125 8.5546875 C-1.30234375 7.67039062 -1.2765625 6.78609375 -1.25 5.875 C-1.23453125 4.98554687 -1.2190625 4.09609375 -1.203125 3.1796875 C-1 1 -1 1 0 0 Z " fill="#A3A8AB" transform="translate(28,94)"/>
<path d="M0 0 C2.3125 0.1875 2.3125 0.1875 5 1 C6.875 3.375 6.875 3.375 8 6 C7.67 6.99 7.34 7.98 7 9 C5.83037314 7.69013727 4.66437056 6.3770374 3.5 5.0625 C2.8503125 4.33160156 2.200625 3.60070313 1.53125 2.84765625 C0 1 0 1 0 0 Z " fill="#ACF6F9" transform="translate(110,52)"/>
<path d="M0 0 C1.74627478 2.61941217 2.38722388 4.03824877 3 7 C2.01 7.66 1.02 8.32 0 9 C-1.4606285 6.35261084 -2 5.10551666 -2 2 C-1.34 2 -0.68 2 0 2 C0 1.34 0 0.68 0 0 Z " fill="#929FAC" transform="translate(32,48)"/>
<path d="M0 0 C0.99 0.99 1.98 1.98 3 3 C2 5 2 5 1 6 C0.67 6.99 0.34 7.98 0 9 C-3 4.25 -3 4.25 -3 2 C-2.01 1.34 -1.02 0.68 0 0 Z " fill="#BDCBD5" transform="translate(132,93)"/>
<path d="M0 0 C2 1 2 1 3.1875 3.3125 C4.03624754 6.11989571 3.99928333 7.301935 3 10 C0.98863724 7.44008376 -0.62845496 4.95409701 -2 2 C-1.34 2 -0.68 2 0 2 C0 1.34 0 0.68 0 0 Z " fill="#6F7072" transform="translate(30,80)"/>
<path d="M0 0 C0.66 0 1.32 0 2 0 C3.5078125 1.96875 3.5078125 1.96875 5.125 4.5 C5.66382812 5.3353125 6.20265625 6.170625 6.7578125 7.03125 C7.16773437 7.6809375 7.57765625 8.330625 8 9 C7.67 9.66 7.34 10.32 7 11 C5.82439821 9.73742767 4.65977135 8.46462916 3.5 7.1875 C2.8503125 6.47980469 2.200625 5.77210937 1.53125 5.04296875 C0 3 0 3 0 0 Z " fill="#52757E" transform="translate(85,40)"/>
<path d="M0 0 C1.32 0 2.64 0 4 0 C4 0.99 4 1.98 4 3 C5.32 2.67 6.64 2.34 8 2 C7.67 2.66 7.34 3.32 7 4 C4.69 4 2.38 4 0 4 C-0.33 3.34 -0.66 2.68 -1 2 C-0.67 1.34 -0.34 0.68 0 0 Z " fill="#B6B3B1" transform="translate(125,142)"/>
<path d="M0 0 C2.64 0.33 5.28 0.66 8 1 C8.33 1.99 8.66 2.98 9 4 C6.1875 4.25 6.1875 4.25 3 4 C1.125 2 1.125 2 0 0 Z " fill="#777878" transform="translate(11,135)"/>
<path d="M0 0 C5.445 1.485 5.445 1.485 11 3 C11 3.33 11 3.66 11 4 C7.7 3.67 4.4 3.34 1 3 C0.67 3.66 0.34 4.32 0 5 C0 3.35 0 1.7 0 0 Z " fill="#A1A1A1" transform="translate(81,133)"/>
<path d="M0 0 C3.60001861 1.86207859 4.53489703 3.98986608 5.75 7.6875 C6.17985483 9.12111159 6.60082968 10.55754362 7 12 C3.66488612 9.0098979 1.78478881 6.10501426 0 2 C0 1.34 0 0.68 0 0 Z " fill="#7FDAF2" transform="translate(122,61)"/>
<path d="M0 0 C1.32 0.33 2.64 0.66 4 1 C3.34 1 2.68 1 2 1 C2.33 3.31 2.66 5.62 3 8 C2.01 8.495 2.01 8.495 1 9 C0.67 6.03 0.34 3.06 0 0 Z " fill="#477382" transform="translate(69,35)"/>
<path d="M0 0 C1.32 0.66 2.64 1.32 4 2 C2.6875 4 2.6875 4 1 6 C0.01 6 -0.98 6 -2 6 C-1.49396008 3.83125748 -1.00016187 2.00032373 0 0 Z " fill="#5FBCD3" transform="translate(111,91)"/>
<path d="M0 0 C0.33 0.99 0.66 1.98 1 3 C0 4 0 4 -3.5625 4.0625 C-4.696875 4.041875 -5.83125 4.02125 -7 4 C-7.33 3.34 -7.66 2.68 -8 2 C-5.36 1.34 -2.72 0.68 0 0 Z " fill="#69C7D8" transform="translate(153,87)"/>
<path d="M0 0 C2.375 0.6875 2.375 0.6875 5 2 C6.3125 4.625 6.3125 4.625 7 7 C4 6 4 6 2 4 C1.01 3.67 0.02 3.34 -1 3 C-0.67 2.01 -0.34 1.02 0 0 Z " fill="#95EFFB" transform="translate(145,59)"/>
<path d="M0 0 C3.87540045 -0.17615457 6.75515269 -0.28341107 10 2 C10.33 2.99 10.66 3.98 11 5 C7.27566618 3.7874262 3.62197194 2.49140021 0 1 C0 0.67 0 0.34 0 0 Z " fill="#737A80" transform="translate(55,27)"/>
<path d="M0 0 C0.99 0.99 1.98 1.98 3 3 C2.67 3.66 2.34 4.32 2 5 C-4 5 -4 5 -6 4 C-3 2 -3 2 0 2 C0 1.34 0 0.68 0 0 Z " fill="#A2DDEA" transform="translate(74,24)"/>
<path d="M0 0 C5.75 0.75 5.75 0.75 8 3 C7.67 3.99 7.34 4.98 7 6 C6.34 6 5.68 6 5 6 C3.2856382 4.04072937 1.61594832 2.04119788 0 0 Z " fill="#9EAAB6" transform="translate(110,130)"/>
<path d="M0 0 C2.4375 0.875 2.4375 0.875 5.4375 2.875 C4.509375 2.83375 3.58125 2.7925 2.625 2.75 C-0.72059719 2.60363661 -0.72059719 2.60363661 -3.5625 4.875 C-4.5525 4.545 -5.5425 4.215 -6.5625 3.875 C-3.26186034 -0.15911514 -3.26186034 -0.15911514 0 0 Z " fill="#546066" transform="translate(116.5625,93.125)"/>
<path d="M0 0 C1.12588014 0.95729916 2.2506715 1.91587895 3.375 2.875 C4.00148438 3.40867187 4.62796875 3.94234375 5.2734375 4.4921875 C6.55836651 5.61432007 7.79371975 6.79371975 9 8 C7.68 8.33 6.36 8.66 5 9 C4.16094435 7.87926138 3.32892169 6.75325453 2.5 5.625 C2.0359375 4.99851562 1.571875 4.37203125 1.09375 3.7265625 C0 2 0 2 0 0 Z " fill="#59676A" transform="translate(104,67)"/>
<path d="M0 0 C0.99 0.99 1.98 1.98 3 3 C2.67 3.66 2.34 4.32 2 5 C-1.96 4.67 -5.92 4.34 -10 4 C-10 3.67 -10 3.34 -10 3 C-9.36191406 2.95101562 -8.72382812 2.90203125 -8.06640625 2.8515625 C-7.24011719 2.77679688 -6.41382813 2.70203125 -5.5625 2.625 C-4.73878906 2.55539063 -3.91507813 2.48578125 -3.06640625 2.4140625 C-2.38449219 2.27742188 -1.70257813 2.14078125 -1 2 C-0.67 1.34 -0.34 0.68 0 0 Z " fill="#373A3C" transform="translate(67,65)"/>
<path d="M0 0 C3 1 3 1 4.75 3.4375 C5.36875 4.7059375 5.36875 4.7059375 6 6 C5.67 6.66 5.34 7.32 5 8 C4.34 8 3.68 8 3 8 C0.95830515 5.09451118 0 3.59857954 0 0 Z " fill="#E2EAF2" transform="translate(31,58)"/>
<path d="M0 0 C4.24822374 0.47202486 6.19989709 2.96655518 9 6 C5.32579134 5.69381595 4.21864487 5.24228216 1.6875 2.4375 C1.130625 1.633125 0.57375 0.82875 0 0 Z " fill="#94EEF7" transform="translate(104,46)"/>
<path d="M0 0 C1.32 0.66 2.64 1.32 4 2 C3.34 2 2.68 2 2 2 C2 3.32 2 4.64 2 6 C1.01 6 0.02 6 -1 6 C-1.042721 4.33388095 -1.04063832 2.66617115 -1 1 C-0.67 0.67 -0.34 0.34 0 0 Z " fill="#595958" transform="translate(35,151)"/>
<path d="M0 0 C0.99 0.33 1.98 0.66 3 1 C4.1875 3.5625 4.1875 3.5625 5 6 C4.34 5.67 3.68 5.34 3 5 C2.34 5.66 1.68 6.32 1 7 C0.67 4.69 0.34 2.38 0 0 Z " fill="#A0A0A0" transform="translate(4,125)"/>
<path d="M0 0 C2.1875 -0.3125 2.1875 -0.3125 5 0 C7.8125 2.5 7.8125 2.5 10 5 C8.51800098 4.55090939 7.03944764 4.09043436 5.5625 3.625 C4.73878906 3.36976563 3.91507812 3.11453125 3.06640625 2.8515625 C1 2 1 2 0 0 Z " fill="#191A1B" transform="translate(71,125)"/>
<path d="M0 0 C2.31 0.33 4.62 0.66 7 1 C7.33 2.32 7.66 3.64 8 5 C4.75791433 4.64950425 3.38472296 4.43778819 1.1875 1.9375 C0.795625 1.298125 0.40375 0.65875 0 0 Z " fill="#61767E" transform="translate(102,81)"/>
<path d="M0 0 C0.99 0 1.98 0 3 0 C3.99 3.3 4.98 6.6 6 10 C2.62358918 6.62358918 1.72549695 4.35482564 0 0 Z " fill="#BCF3FB" transform="translate(124,70)"/>
<path d="M0 0 C3.76488042 1.72154788 6.15063897 3.99234114 9 7 C6 7 6 7 4.39453125 5.46875 C3.87246094 4.8190625 3.35039063 4.169375 2.8125 3.5 C2.28269531 2.8503125 1.75289063 2.200625 1.20703125 1.53125 C0.80871094 1.0259375 0.41039063 0.520625 0 0 Z " fill="#BAD1DE" transform="translate(104,66)"/>
<path d="M0 0 C3.19199167 2.41556126 5.74716687 4.68003538 8 8 C7.67 8.66 7.34 9.32 7 10 C5.82739389 8.71372289 4.6620717 7.42080217 3.5 6.125 C2.8503125 5.40570313 2.200625 4.68640625 1.53125 3.9453125 C0 2 0 2 0 0 Z " fill="#A6B1BA" transform="translate(83,60)"/>
<path d="M0 0 C0.99 0.99 1.98 1.98 3 3 C1.68 3.33 0.36 3.66 -1 4 C-1 4.99 -1 5.98 -1 7 C-1.99 7.33 -2.98 7.66 -4 8 C-4.33 7.34 -4.66 6.68 -5 6 C-4.01 6 -3.02 6 -2 6 C-1.855625 5.195625 -1.71125 4.39125 -1.5625 3.5625 C-1 1 -1 1 0 0 Z " fill="#3D3C3D" transform="translate(57,125)"/>
<path d="M0 0 C1.32 0.33 2.64 0.66 4 1 C4 3.31 4 5.62 4 8 C3.34 8 2.68 8 2 8 C1.34 5.36 0.68 2.72 0 0 Z " fill="#1F2022" transform="translate(35,88)"/>
<path d="M0 0 C2.97 0.495 2.97 0.495 6 1 C6 1.66 6 2.32 6 3 C6.66 3.33 7.32 3.66 8 4 C2.25 3.125 2.25 3.125 0 2 C0 1.34 0 0.68 0 0 Z " fill="#5D767F" transform="translate(115,89)"/>
<path d="M0 0 C3.29148243 1.13499394 3.9959869 1.99283376 5.75 5.125 C6.1625 6.07375 6.575 7.0225 7 8 C3.70851757 6.86500606 3.0040131 6.00716624 1.25 2.875 C0.8375 1.92625 0.425 0.9775 0 0 Z " fill="#A1ABB8" transform="translate(123,83)"/>
<path d="M0 0 C3.465 1.98 3.465 1.98 7 4 C3.71023192 5.09658936 2.28696233 4.79953138 -1 4 C-0.67 2.68 -0.34 1.36 0 0 Z " fill="#BFD3DE" transform="translate(121,79)"/>
<path d="M0 0 C5.57142857 5.14285714 5.57142857 5.14285714 6 9 C0.42857143 3.85714286 0.42857143 3.85714286 0 0 Z " fill="#C5D6DC" transform="translate(73,67)"/>
<path d="M0 0 C0 3.51716303 -0.82445585 4.37121748 -3 7 C-3.66 6.67 -4.32 6.34 -5 6 C-5 4.68 -5 3.36 -5 2 C-3.35 1.34 -1.7 0.68 0 0 Z " fill="#5DB9D2" transform="translate(73,27)"/>
<path d="M0 0 C0.66 0 1.32 0 2 0 C3.125 6.75 3.125 6.75 2 9 C-0.29013653 5.5647952 -0.17842973 4.014669 0 0 Z " fill="#BEBFC0" transform="translate(6,120)"/>
<path d="M0 0 C-3.465 2.97 -3.465 2.97 -7 6 C-6.75 3.625 -6.75 3.625 -6 1 C-2.69333333 -1.34666667 -2.69333333 -1.34666667 0 0 Z " fill="#18191A" transform="translate(11,97)"/>
<path d="M0 0 C2.5654594 2.5654594 2.54046087 4.47686668 3 8 C2.01 8 1.02 8 0 8 C0 5.36 0 2.72 0 0 Z " fill="#A8F1F7" transform="translate(133,76)"/>
<path d="M0 0 C1.98 0.495 1.98 0.495 4 1 C4.33 2.65 4.66 4.3 5 6 C3.02 4.68 1.04 3.36 -1 2 C-0.67 1.34 -0.34 0.68 0 0 Z " fill="#515B61" transform="translate(103,77)"/>
<path d="M0 0 C2.97 0.495 2.97 0.495 6 1 C6 1.99 6 2.98 6 4 C5.01 4 4.02 4 3 4 C1.3125 2 1.3125 2 0 0 Z " fill="#54A1B5" transform="translate(89,56)"/>
</svg>
